<?xml version="1.0" encoding="utf-8" standalone="no"?>
<!DOCTYPE svg PUBLIC "-//W3C//DTD SVG 1.1//EN"
  "http://www.w3.org/Graphics/SVG/1.1/DTD/svg11.dtd">
<svg xmlns:xlink="http://www.w3.org/1999/xlink" width="1382.4pt" height="727.2pt" viewBox="0 0 1382.4 727.2" xmlns="http://www.w3.org/2000/svg" version="1.1">
 <metadata>
  <rdf:RDF xmlns:dc="http://purl.org/dc/elements/1.1/" xmlns:cc="http://creativecommons.org/ns#" xmlns:rdf="http://www.w3.org/1999/02/22-rdf-syntax-ns#">
   <cc:Work>
    <dc:type rdf:resource="http://purl.org/dc/dcmitype/StillImage"/>
    <dc:date>2025-02-07T17:38:34.340692</dc:date>
    <dc:format>image/svg+xml</dc:format>
    <dc:creator>
     <cc:Agent>
      <dc:title>Matplotlib v3.10.0, https://matplotlib.org/</dc:title>
     </cc:Agent>
    </dc:creator>
   </cc:Work>
  </rdf:RDF>
 </metadata>
 <defs>
  <style type="text/css">*{stroke-linejoin: round; stroke-linecap: butt}</style>
 </defs>
 <g id="figure_1">
  <g id="patch_1">
   <path d="M 0 727.2 
L 1382.4 727.2 
L 1382.4 0 
L 0 0 
z
" style="fill: #ffffff"/>
  </g>
  <g id="axes_1">
   <g id="patch_2">
    <path d="M 172.8 647.208 
L 1244.16 647.208 
L 1244.16 87.264 
L 172.8 87.264 
z
" style="fill: #ffffff"/>
   </g>
   <g id="patch_3">
    <path d="M 221.498182 647.208 
L 224.205516 647.208 
L 224.205516 636.455369 
L 221.498182 636.455369 
z
" clip-path="url(#pd3e0a0cb70)" style="fill: #1f77b4"/>
   </g>
   <g id="patch_4">
    <path d="M 224.88235 647.208 
L 227.589685 647.208 
L 227.589685 644.797403 
L 224.88235 644.797403 
z
" clip-path="url(#pd3e0a0cb70)" style="fill: #1f77b4"/>
   </g>
   <g id="patch_5">
    <path d="M 228.266518 647.208 
L 230.973853 647.208 
L 230.973853 641.130508 
L 228.266518 641.130508 
z
" clip-path="url(#pd3e0a0cb70)" style="fill: #1f77b4"/>
   </g>
   <g id="patch_6">
    <path d="M 231.650687 647.208 
L 234.358021 647.208 
L 234.358021 633.315169 
L 231.650687 633.315169 
z
" clip-path="url(#pd3e0a0cb70)" style="fill: #1f77b4"/>
   </g>
   <g id="patch_7">
    <path d="M 235.034855 647.208 
L 237.74219 647.208 
L 237.74219 634.415227 
L 235.034855 634.415227 
z
" clip-path="url(#pd3e0a0cb70)" style="fill: #1f77b4"/>
   </g>
   <g id="patch_8">
    <path d="M 238.419023 647.208 
L 241.126358 647.208 
L 241.126358 640.623446 
L 238.419023 640.623446 
z
" clip-path="url(#pd3e0a0cb70)" style="fill: #1f77b4"/>
   </g>
   <g id="patch_9">
    <path d="M 241.803192 647.208 
L 244.510526 647.208 
L 244.510526 643.248931 
L 241.803192 643.248931 
z
" clip-path="url(#pd3e0a0cb70)" style="fill: #1f77b4"/>
   </g>
   <g id="patch_10">
    <path d="M 245.18736 647.208 
L 247.894695 647.208 
L 247.894695 636.69194 
L 245.18736 636.69194 
z
" clip-path="url(#pd3e0a0cb70)" style="fill: #1f77b4"/>
   </g>
   <g id="patch_11">
    <path d="M 248.571528 647.208 
L 251.278863 647.208 
L 251.278863 634.863882 
L 248.571528 634.863882 
z
" clip-path="url(#pd3e0a0cb70)" style="fill: #1f77b4"/>
   </g>
   <g id="patch_12">
    <path d="M 251.955697 647.208 
L 254.663031 647.208 
L 254.663031 641.111701 
L 251.955697 641.111701 
z
" clip-path="url(#pd3e0a0cb70)" style="fill: #1f77b4"/>
   </g>
   <g id="patch_13">
    <path d="M 255.339865 647.208 
L 258.047199 647.208 
L 258.047199 630.465212 
L 255.339865 630.465212 
z
" clip-path="url(#pd3e0a0cb70)" style="fill: #1f77b4"/>
   </g>
   <g id="patch_14">
    <path d="M 258.724033 647.208 
L 261.431368 647.208 
L 261.431368 637.887048 
L 258.724033 637.887048 
z
" clip-path="url(#pd3e0a0cb70)" style="fill: #1f77b4"/>
   </g>
   <g id="patch_15">
    <path d="M 262.108201 647.208 
L 264.815536 647.208 
L 264.815536 634.621162 
L 262.108201 634.621162 
z
" clip-path="url(#pd3e0a0cb70)" style="fill: #1f77b4"/>
   </g>
   <g id="patch_16">
    <path d="M 265.49237 647.208 
L 268.199704 647.208 
L 268.199704 637.012689 
L 265.49237 637.012689 
z
" clip-path="url(#pd3e0a0cb70)" style="fill: #1f77b4"/>
   </g>
   <g id="patch_17">
    <path d="M 268.876538 647.208 
L 271.583873 647.208 
L 271.583873 641.471509 
L 268.876538 641.471509 
z
" clip-path="url(#pd3e0a0cb70)" style="fill: #1f77b4"/>
   </g>
   <g id="patch_18">
    <path d="M 272.260706 647.208 
L 274.968041 647.208 
L 274.968041 638.74428 
L 272.260706 638.74428 
z
" clip-path="url(#pd3e0a0cb70)" style="fill: #1f77b4"/>
   </g>
   <g id="patch_19">
    <path d="M 275.644875 647.208 
L 278.352209 647.208 
L 278.352209 627.534076 
L 275.644875 627.534076 
z
" clip-path="url(#pd3e0a0cb70)" style="fill: #1f77b4"/>
   </g>
   <g id="patch_20">
    <path d="M 279.029043 647.208 
L 281.736378 647.208 
L 281.736378 624.418664 
L 279.029043 624.418664 
z
" clip-path="url(#pd3e0a0cb70)" style="fill: #1f77b4"/>
   </g>
   <g id="patch_21">
    <path d="M 282.413211 647.208 
L 285.120546 647.208 
L 285.120546 609.972616 
L 282.413211 609.972616 
z
" clip-path="url(#pd3e0a0cb70)" style="fill: #1f77b4"/>
   </g>
   <g id="patch_22">
    <path d="M 285.797379 647.208 
L 288.504714 647.208 
L 288.504714 609.048021 
L 285.797379 609.048021 
z
" clip-path="url(#pd3e0a0cb70)" style="fill: #1f77b4"/>
   </g>
   <g id="patch_23">
    <path d="M 289.181548 647.208 
L 291.888882 647.208 
L 291.888882 611.429867 
L 289.181548 611.429867 
z
" clip-path="url(#pd3e0a0cb70)" style="fill: #1f77b4"/>
   </g>
   <g id="patch_24">
    <path d="M 292.565716 647.208 
L 295.273051 647.208 
L 295.273051 600.232446 
L 292.565716 600.232446 
z
" clip-path="url(#pd3e0a0cb70)" style="fill: #1f77b4"/>
   </g>
   <g id="patch_25">
    <path d="M 295.949884 647.208 
L 298.657219 647.208 
L 298.657219 588.107708 
L 295.949884 588.107708 
z
" clip-path="url(#pd3e0a0cb70)" style="fill: #1f77b4"/>
   </g>
   <g id="patch_26">
    <path d="M 299.334053 647.208 
L 302.041387 647.208 
L 302.041387 637.113007 
L 299.334053 637.113007 
z
" clip-path="url(#pd3e0a0cb70)" style="fill: #1f77b4"/>
   </g>
   <g id="patch_27">
    <path d="M 302.718221 647.208 
L 305.425556 647.208 
L 305.425556 622.127979 
L 302.718221 622.127979 
z
" clip-path="url(#pd3e0a0cb70)" style="fill: #1f77b4"/>
   </g>
   <g id="patch_28">
    <path d="M 306.102389 647.208 
L 308.809724 647.208 
L 308.809724 622.293584 
L 306.102389 622.293584 
z
" clip-path="url(#pd3e0a0cb70)" style="fill: #1f77b4"/>
   </g>
   <g id="patch_29">
    <path d="M 309.486558 647.208 
L 312.193892 647.208 
L 312.193892 631.213613 
L 309.486558 631.213613 
z
" clip-path="url(#pd3e0a0cb70)" style="fill: #1f77b4"/>
   </g>
   <g id="patch_30">
    <path d="M 312.870726 647.208 
L 315.578061 647.208 
L 315.578061 620.695187 
L 312.870726 620.695187 
z
" clip-path="url(#pd3e0a0cb70)" style="fill: #1f77b4"/>
   </g>
   <g id="patch_31">
    <path d="M 316.254894 647.208 
L 318.962229 647.208 
L 318.962229 613.370019 
L 316.254894 613.370019 
z
" clip-path="url(#pd3e0a0cb70)" style="fill: #1f77b4"/>
   </g>
   <g id="patch_32">
    <path d="M 319.639062 647.208 
L 322.346397 647.208 
L 322.346397 624.760571 
L 319.639062 624.760571 
z
" clip-path="url(#pd3e0a0cb70)" style="fill: #1f77b4"/>
   </g>
   <g id="patch_33">
    <path d="M 323.023231 647.208 
L 325.730565 647.208 
L 325.730565 622.51348 
L 323.023231 622.51348 
z
" clip-path="url(#pd3e0a0cb70)" style="fill: #1f77b4"/>
   </g>
   <g id="patch_34">
    <path d="M 326.407399 647.208 
L 329.114734 647.208 
L 329.114734 629.150973 
L 326.407399 629.150973 
z
" clip-path="url(#pd3e0a0cb70)" style="fill: #1f77b4"/>
   </g>
   <g id="patch_35">
    <path d="M 329.791567 647.208 
L 332.498902 647.208 
L 332.498902 616.924413 
L 329.791567 616.924413 
z
" clip-path="url(#pd3e0a0cb70)" style="fill: #1f77b4"/>
   </g>
   <g id="patch_36">
    <path d="M 333.175736 647.208 
L 335.88307 647.208 
L 335.88307 628.857287 
L 333.175736 628.857287 
z
" clip-path="url(#pd3e0a0cb70)" style="fill: #1f77b4"/>
   </g>
   <g id="patch_37">
    <path d="M 336.559904 647.208 
L 339.267239 647.208 
L 339.267239 615.199494 
L 336.559904 615.199494 
z
" clip-path="url(#pd3e0a0cb70)" style="fill: #1f77b4"/>
   </g>
   <g id="patch_38">
    <path d="M 339.944072 647.208 
L 342.651407 647.208 
L 342.651407 596.609289 
L 339.944072 596.609289 
z
" clip-path="url(#pd3e0a0cb70)" style="fill: #1f77b4"/>
   </g>
   <g id="patch_39">
    <path d="M 343.328241 647.208 
L 346.035575 647.208 
L 346.035575 620.247544 
L 343.328241 620.247544 
z
" clip-path="url(#pd3e0a0cb70)" style="fill: #1f77b4"/>
   </g>
   <g id="patch_40">
    <path d="M 346.712409 647.208 
L 349.419744 647.208 
L 349.419744 626.386232 
L 346.712409 626.386232 
z
" clip-path="url(#pd3e0a0cb70)" style="fill: #1f77b4"/>
   </g>
   <g id="patch_41">
    <path d="M 350.096577 647.208 
L 352.803912 647.208 
L 352.803912 623.416861 
L 350.096577 623.416861 
z
" clip-path="url(#pd3e0a0cb70)" style="fill: #1f77b4"/>
   </g>
   <g id="patch_42">
    <path d="M 353.480745 647.208 
L 356.18808 647.208 
L 356.18808 599.686018 
L 353.480745 599.686018 
z
" clip-path="url(#pd3e0a0cb70)" style="fill: #1f77b4"/>
   </g>
   <g id="patch_43">
    <path d="M 356.864914 647.208 
L 359.572248 647.208 
L 359.572248 591.610115 
L 356.864914 591.610115 
z
" clip-path="url(#pd3e0a0cb70)" style="fill: #1f77b4"/>
   </g>
   <g id="patch_44">
    <path d="M 360.249082 647.208 
L 362.956417 647.208 
L 362.956417 569.097875 
L 360.249082 569.097875 
z
" clip-path="url(#pd3e0a0cb70)" style="fill: #1f77b4"/>
   </g>
   <g id="patch_45">
    <path d="M 363.63325 647.208 
L 366.340585 647.208 
L 366.340585 608.581663 
L 363.63325 608.581663 
z
" clip-path="url(#pd3e0a0cb70)" style="fill: #1f77b4"/>
   </g>
   <g id="patch_46">
    <path d="M 367.017419 647.208 
L 369.724753 647.208 
L 369.724753 591.646779 
L 367.017419 591.646779 
z
" clip-path="url(#pd3e0a0cb70)" style="fill: #1f77b4"/>
   </g>
   <g id="patch_47">
    <path d="M 370.401587 647.208 
L 373.108922 647.208 
L 373.108922 615.230637 
L 370.401587 615.230637 
z
" clip-path="url(#pd3e0a0cb70)" style="fill: #1f77b4"/>
   </g>
   <g id="patch_48">
    <path d="M 373.785755 647.208 
L 376.49309 647.208 
L 376.49309 627.922323 
L 373.785755 627.922323 
z
" clip-path="url(#pd3e0a0cb70)" style="fill: #1f77b4"/>
   </g>
   <g id="patch_49">
    <path d="M 377.169924 647.208 
L 379.877258 647.208 
L 379.877258 581.326762 
L 377.169924 581.326762 
z
" clip-path="url(#pd3e0a0cb70)" style="fill: #1f77b4"/>
   </g>
   <g id="patch_50">
    <path d="M 380.554092 647.208 
L 383.261426 647.208 
L 383.261426 615.129785 
L 380.554092 615.129785 
z
" clip-path="url(#pd3e0a0cb70)" style="fill: #1f77b4"/>
   </g>
   <g id="patch_51">
    <path d="M 383.93826 647.208 
L 386.645595 647.208 
L 386.645595 615.698588 
L 383.93826 615.698588 
z
" clip-path="url(#pd3e0a0cb70)" style="fill: #1f77b4"/>
   </g>
   <g id="patch_52">
    <path d="M 387.322428 647.208 
L 390.029763 647.208 
L 390.029763 592.709132 
L 387.322428 592.709132 
z
" clip-path="url(#pd3e0a0cb70)" style="fill: #1f77b4"/>
   </g>
   <g id="patch_53">
    <path d="M 390.706597 647.208 
L 393.413931 647.208 
L 393.413931 615.559011 
L 390.706597 615.559011 
z
" clip-path="url(#pd3e0a0cb70)" style="fill: #1f77b4"/>
   </g>
   <g id="patch_54">
    <path d="M 394.090765 647.208 
L 396.7981 647.208 
L 396.7981 624.899996 
L 394.090765 624.899996 
z
" clip-path="url(#pd3e0a0cb70)" style="fill: #1f77b4"/>
   </g>
   <g id="patch_55">
    <path d="M 397.474933 647.208 
L 400.182268 647.208 
L 400.182268 603.918662 
L 397.474933 603.918662 
z
" clip-path="url(#pd3e0a0cb70)" style="fill: #1f77b4"/>
   </g>
   <g id="patch_56">
    <path d="M 400.859102 647.208 
L 403.566436 647.208 
L 403.566436 593.349927 
L 400.859102 593.349927 
z
" clip-path="url(#pd3e0a0cb70)" style="fill: #1f77b4"/>
   </g>
   <g id="patch_57">
    <path d="M 404.24327 647.208 
L 406.950605 647.208 
L 406.950605 584.635474 
L 404.24327 584.635474 
z
" clip-path="url(#pd3e0a0cb70)" style="fill: #1f77b4"/>
   </g>
   <g id="patch_58">
    <path d="M 407.627438 647.208 
L 410.334773 647.208 
L 410.334773 609.430994 
L 407.627438 609.430994 
z
" clip-path="url(#pd3e0a0cb70)" style="fill: #1f77b4"/>
   </g>
   <g id="patch_59">
    <path d="M 411.011607 647.208 
L 413.718941 647.208 
L 413.718941 575.607922 
L 411.011607 575.607922 
z
" clip-path="url(#pd3e0a0cb70)" style="fill: #1f77b4"/>
   </g>
   <g id="patch_60">
    <path d="M 414.395775 647.208 
L 417.103109 647.208 
L 417.103109 601.188088 
L 414.395775 601.188088 
z
" clip-path="url(#pd3e0a0cb70)" style="fill: #1f77b4"/>
   </g>
   <g id="patch_61">
    <path d="M 417.779943 647.208 
L 420.487278 647.208 
L 420.487278 601.410937 
L 417.779943 601.410937 
z
" clip-path="url(#pd3e0a0cb70)" style="fill: #1f77b4"/>
   </g>
   <g id="patch_62">
    <path d="M 421.164111 647.208 
L 423.871446 647.208 
L 423.871446 588.520268 
L 421.164111 588.520268 
z
" clip-path="url(#pd3e0a0cb70)" style="fill: #1f77b4"/>
   </g>
   <g id="patch_63">
    <path d="M 424.54828 647.208 
L 427.255614 647.208 
L 427.255614 576.513948 
L 424.54828 576.513948 
z
" clip-path="url(#pd3e0a0cb70)" style="fill: #1f77b4"/>
   </g>
   <g id="patch_64">
    <path d="M 427.932448 647.208 
L 430.639783 647.208 
L 430.639783 571.577466 
L 427.932448 571.577466 
z
" clip-path="url(#pd3e0a0cb70)" style="fill: #1f77b4"/>
   </g>
   <g id="patch_65">
    <path d="M 431.316616 647.208 
L 434.023951 647.208 
L 434.023951 522.291024 
L 431.316616 522.291024 
z
" clip-path="url(#pd3e0a0cb70)" style="fill: #1f77b4"/>
   </g>
   <g id="patch_66">
    <path d="M 434.700785 647.208 
L 437.408119 647.208 
L 437.408119 618.106789 
L 434.700785 618.106789 
z
" clip-path="url(#pd3e0a0cb70)" style="fill: #1f77b4"/>
   </g>
   <g id="patch_67">
    <path d="M 438.084953 647.208 
L 440.792288 647.208 
L 440.792288 586.26695 
L 438.084953 586.26695 
z
" clip-path="url(#pd3e0a0cb70)" style="fill: #1f77b4"/>
   </g>
   <g id="patch_68">
    <path d="M 441.469121 647.208 
L 444.176456 647.208 
L 444.176456 586.524922 
L 441.469121 586.524922 
z
" clip-path="url(#pd3e0a0cb70)" style="fill: #1f77b4"/>
   </g>
   <g id="patch_69">
    <path d="M 444.85329 647.208 
L 447.560624 647.208 
L 447.560624 546.590859 
L 444.85329 546.590859 
z
" clip-path="url(#pd3e0a0cb70)" style="fill: #1f77b4"/>
   </g>
   <g id="patch_70">
    <path d="M 448.237458 647.208 
L 450.944792 647.208 
L 450.944792 624.17879 
L 448.237458 624.17879 
z
" clip-path="url(#pd3e0a0cb70)" style="fill: #1f77b4"/>
   </g>
   <g id="patch_71">
    <path d="M 451.621626 647.208 
L 454.328961 647.208 
L 454.328961 599.087007 
L 451.621626 599.087007 
z
" clip-path="url(#pd3e0a0cb70)" style="fill: #1f77b4"/>
   </g>
   <g id="patch_72">
    <path d="M 455.005794 647.208 
L 457.713129 647.208 
L 457.713129 619.375565 
L 455.005794 619.375565 
z
" clip-path="url(#pd3e0a0cb70)" style="fill: #1f77b4"/>
   </g>
   <g id="patch_73">
    <path d="M 458.389963 647.208 
L 461.097297 647.208 
L 461.097297 588.697126 
L 458.389963 588.697126 
z
" clip-path="url(#pd3e0a0cb70)" style="fill: #1f77b4"/>
   </g>
   <g id="patch_74">
    <path d="M 461.774131 647.208 
L 464.481466 647.208 
L 464.481466 604.185696 
L 461.774131 604.185696 
z
" clip-path="url(#pd3e0a0cb70)" style="fill: #1f77b4"/>
   </g>
   <g id="patch_75">
    <path d="M 465.158299 647.208 
L 467.865634 647.208 
L 467.865634 630.602161 
L 465.158299 630.602161 
z
" clip-path="url(#pd3e0a0cb70)" style="fill: #1f77b4"/>
   </g>
   <g id="patch_76">
    <path d="M 468.542468 647.208 
L 471.249802 647.208 
L 471.249802 583.119087 
L 468.542468 583.119087 
z
" clip-path="url(#pd3e0a0cb70)" style="fill: #1f77b4"/>
   </g>
   <g id="patch_77">
    <path d="M 471.926636 647.208 
L 474.633971 647.208 
L 474.633971 579.149967 
L 471.926636 579.149967 
z
" clip-path="url(#pd3e0a0cb70)" style="fill: #1f77b4"/>
   </g>
   <g id="patch_78">
    <path d="M 475.310804 647.208 
L 478.018139 647.208 
L 478.018139 576.939239 
L 475.310804 576.939239 
z
" clip-path="url(#pd3e0a0cb70)" style="fill: #1f77b4"/>
   </g>
   <g id="patch_79">
    <path d="M 478.694973 647.208 
L 481.402307 647.208 
L 481.402307 590.063806 
L 478.694973 590.063806 
z
" clip-path="url(#pd3e0a0cb70)" style="fill: #1f77b4"/>
   </g>
   <g id="patch_80">
    <path d="M 482.079141 647.208 
L 484.786475 647.208 
L 484.786475 602.990135 
L 482.079141 602.990135 
z
" clip-path="url(#pd3e0a0cb70)" style="fill: #1f77b4"/>
   </g>
   <g id="patch_81">
    <path d="M 485.463309 647.208 
L 488.170644 647.208 
L 488.170644 609.386151 
L 485.463309 609.386151 
z
" clip-path="url(#pd3e0a0cb70)" style="fill: #1f77b4"/>
   </g>
   <g id="patch_82">
    <path d="M 488.847477 647.208 
L 491.554812 647.208 
L 491.554812 527.771902 
L 488.847477 527.771902 
z
" clip-path="url(#pd3e0a0cb70)" style="fill: #1f77b4"/>
   </g>
   <g id="patch_83">
    <path d="M 492.231646 647.208 
L 494.93898 647.208 
L 494.93898 606.254053 
L 492.231646 606.254053 
z
" clip-path="url(#pd3e0a0cb70)" style="fill: #1f77b4"/>
   </g>
   <g id="patch_84">
    <path d="M 495.615814 647.208 
L 498.323149 647.208 
L 498.323149 567.943611 
L 495.615814 567.943611 
z
" clip-path="url(#pd3e0a0cb70)" style="fill: #1f77b4"/>
   </g>
   <g id="patch_85">
    <path d="M 498.999982 647.208 
L 501.707317 647.208 
L 501.707317 567.484396 
L 498.999982 567.484396 
z
" clip-path="url(#pd3e0a0cb70)" style="fill: #1f77b4"/>
   </g>
   <g id="patch_86">
    <path d="M 502.384151 647.208 
L 505.091485 647.208 
L 505.091485 611.709838 
L 502.384151 611.709838 
z
" clip-path="url(#pd3e0a0cb70)" style="fill: #1f77b4"/>
   </g>
   <g id="patch_87">
    <path d="M 505.768319 647.208 
L 508.475654 647.208 
L 508.475654 618.746021 
L 505.768319 618.746021 
z
" clip-path="url(#pd3e0a0cb70)" style="fill: #1f77b4"/>
   </g>
   <g id="patch_88">
    <path d="M 509.152487 647.208 
L 511.859822 647.208 
L 511.859822 632.864945 
L 509.152487 632.864945 
z
" clip-path="url(#pd3e0a0cb70)" style="fill: #1f77b4"/>
   </g>
   <g id="patch_89">
    <path d="M 512.536656 647.208 
L 515.24399 647.208 
L 515.24399 606.338154 
L 512.536656 606.338154 
z
" clip-path="url(#pd3e0a0cb70)" style="fill: #1f77b4"/>
   </g>
   <g id="patch_90">
    <path d="M 515.920824 647.208 
L 518.628158 647.208 
L 518.628158 615.524502 
L 515.920824 615.524502 
z
" clip-path="url(#pd3e0a0cb70)" style="fill: #1f77b4"/>
   </g>
   <g id="patch_91">
    <path d="M 519.304992 647.208 
L 522.012327 647.208 
L 522.012327 602.978517 
L 519.304992 602.978517 
z
" clip-path="url(#pd3e0a0cb70)" style="fill: #1f77b4"/>
   </g>
   <g id="patch_92">
    <path d="M 522.68916 647.208 
L 525.396495 647.208 
L 525.396495 571.733447 
L 522.68916 571.733447 
z
" clip-path="url(#pd3e0a0cb70)" style="fill: #1f77b4"/>
   </g>
   <g id="patch_93">
    <path d="M 526.073329 647.208 
L 528.780663 647.208 
L 528.780663 613.552042 
L 526.073329 613.552042 
z
" clip-path="url(#pd3e0a0cb70)" style="fill: #1f77b4"/>
   </g>
   <g id="patch_94">
    <path d="M 529.457497 647.208 
L 532.164832 647.208 
L 532.164832 571.48587 
L 529.457497 571.48587 
z
" clip-path="url(#pd3e0a0cb70)" style="fill: #1f77b4"/>
   </g>
   <g id="patch_95">
    <path d="M 532.841665 647.208 
L 535.549 647.208 
L 535.549 603.973625 
L 532.841665 603.973625 
z
" clip-path="url(#pd3e0a0cb70)" style="fill: #1f77b4"/>
   </g>
   <g id="patch_96">
    <path d="M 536.225834 647.208 
L 538.933168 647.208 
L 538.933168 559.204954 
L 536.225834 559.204954 
z
" clip-path="url(#pd3e0a0cb70)" style="fill: #1f77b4"/>
   </g>
   <g id="patch_97">
    <path d="M 539.610002 647.208 
L 542.317337 647.208 
L 542.317337 595.905687 
L 539.610002 595.905687 
z
" clip-path="url(#pd3e0a0cb70)" style="fill: #1f77b4"/>
   </g>
   <g id="patch_98">
    <path d="M 542.99417 647.208 
L 545.701505 647.208 
L 545.701505 605.421242 
L 542.99417 605.421242 
z
" clip-path="url(#pd3e0a0cb70)" style="fill: #1f77b4"/>
   </g>
   <g id="patch_99">
    <path d="M 546.378338 647.208 
L 549.085673 647.208 
L 549.085673 610.736461 
L 546.378338 610.736461 
z
" clip-path="url(#pd3e0a0cb70)" style="fill: #1f77b4"/>
   </g>
   <g id="patch_100">
    <path d="M 549.762507 647.208 
L 552.469841 647.208 
L 552.469841 555.168675 
L 549.762507 555.168675 
z
" clip-path="url(#pd3e0a0cb70)" style="fill: #1f77b4"/>
   </g>
   <g id="patch_101">
    <path d="M 553.146675 647.208 
L 555.85401 647.208 
L 555.85401 597.144228 
L 553.146675 597.144228 
z
" clip-path="url(#pd3e0a0cb70)" style="fill: #1f77b4"/>
   </g>
   <g id="patch_102">
    <path d="M 556.530843 647.208 
L 559.238178 647.208 
L 559.238178 616.988082 
L 556.530843 616.988082 
z
" clip-path="url(#pd3e0a0cb70)" style="fill: #1f77b4"/>
   </g>
   <g id="patch_103">
    <path d="M 559.915012 647.208 
L 562.622346 647.208 
L 562.622346 589.473708 
L 559.915012 589.473708 
z
" clip-path="url(#pd3e0a0cb70)" style="fill: #1f77b4"/>
   </g>
   <g id="patch_104">
    <path d="M 563.29918 647.208 
L 566.006515 647.208 
L 566.006515 523.234648 
L 563.29918 523.234648 
z
" clip-path="url(#pd3e0a0cb70)" style="fill: #1f77b4"/>
   </g>
   <g id="patch_105">
    <path d="M 566.683348 647.208 
L 569.390683 647.208 
L 569.390683 593.444846 
L 566.683348 593.444846 
z
" clip-path="url(#pd3e0a0cb70)" style="fill: #1f77b4"/>
   </g>
   <g id="patch_106">
    <path d="M 570.067517 647.208 
L 572.774851 647.208 
L 572.774851 585.838306 
L 570.067517 585.838306 
z
" clip-path="url(#pd3e0a0cb70)" style="fill: #1f77b4"/>
   </g>
   <g id="patch_107">
    <path d="M 573.451685 647.208 
L 576.15902 647.208 
L 576.15902 569.419433 
L 573.451685 569.419433 
z
" clip-path="url(#pd3e0a0cb70)" style="fill: #1f77b4"/>
   </g>
   <g id="patch_108">
    <path d="M 576.835853 647.208 
L 579.543188 647.208 
L 579.543188 534.207074 
L 576.835853 534.207074 
z
" clip-path="url(#pd3e0a0cb70)" style="fill: #1f77b4"/>
   </g>
   <g id="patch_109">
    <path d="M 580.220021 647.208 
L 582.927356 647.208 
L 582.927356 545.771489 
L 580.220021 545.771489 
z
" clip-path="url(#pd3e0a0cb70)" style="fill: #1f77b4"/>
   </g>
   <g id="patch_110">
    <path d="M 583.60419 647.208 
L 586.311524 647.208 
L 586.311524 518.289287 
L 583.60419 518.289287 
z
" clip-path="url(#pd3e0a0cb70)" style="fill: #1f77b4"/>
   </g>
   <g id="patch_111">
    <path d="M 586.988358 647.208 
L 589.695693 647.208 
L 589.695693 566.364972 
L 586.988358 566.364972 
z
" clip-path="url(#pd3e0a0cb70)" style="fill: #1f77b4"/>
   </g>
   <g id="patch_112">
    <path d="M 590.372526 647.208 
L 593.079861 647.208 
L 593.079861 571.110395 
L 590.372526 571.110395 
z
" clip-path="url(#pd3e0a0cb70)" style="fill: #1f77b4"/>
   </g>
   <g id="patch_113">
    <path d="M 593.756695 647.208 
L 596.464029 647.208 
L 596.464029 538.440402 
L 593.756695 538.440402 
z
" clip-path="url(#pd3e0a0cb70)" style="fill: #1f77b4"/>
   </g>
   <g id="patch_114">
    <path d="M 597.140863 647.208 
L 599.848198 647.208 
L 599.848198 531.379884 
L 597.140863 531.379884 
z
" clip-path="url(#pd3e0a0cb70)" style="fill: #1f77b4"/>
   </g>
   <g id="patch_115">
    <path d="M 600.525031 647.208 
L 603.232366 647.208 
L 603.232366 557.110188 
L 600.525031 557.110188 
z
" clip-path="url(#pd3e0a0cb70)" style="fill: #1f77b4"/>
   </g>
   <g id="patch_116">
    <path d="M 603.9092 647.208 
L 606.616534 647.208 
L 606.616534 524.422224 
L 603.9092 524.422224 
z
" clip-path="url(#pd3e0a0cb70)" style="fill: #1f77b4"/>
   </g>
   <g id="patch_117">
    <path d="M 607.293368 647.208 
L 610.000703 647.208 
L 610.000703 525.063212 
L 607.293368 525.063212 
z
" clip-path="url(#pd3e0a0cb70)" style="fill: #1f77b4"/>
   </g>
   <g id="patch_118">
    <path d="M 610.677536 647.208 
L 613.384871 647.208 
L 613.384871 504.92973 
L 610.677536 504.92973 
z
" clip-path="url(#pd3e0a0cb70)" style="fill: #1f77b4"/>
   </g>
   <g id="patch_119">
    <path d="M 614.061704 647.208 
L 616.769039 647.208 
L 616.769039 549.65882 
L 614.061704 549.65882 
z
" clip-path="url(#pd3e0a0cb70)" style="fill: #1f77b4"/>
   </g>
   <g id="patch_120">
    <path d="M 617.445873 647.208 
L 620.153207 647.208 
L 620.153207 548.669577 
L 617.445873 548.669577 
z
" clip-path="url(#pd3e0a0cb70)" style="fill: #1f77b4"/>
   </g>
   <g id="patch_121">
    <path d="M 620.830041 647.208 
L 623.537376 647.208 
L 623.537376 462.829114 
L 620.830041 462.829114 
z
" clip-path="url(#pd3e0a0cb70)" style="fill: #1f77b4"/>
   </g>
   <g id="patch_122">
    <path d="M 624.214209 647.208 
L 626.921544 647.208 
L 626.921544 518.00449 
L 624.214209 518.00449 
z
" clip-path="url(#pd3e0a0cb70)" style="fill: #1f77b4"/>
   </g>
   <g id="patch_123">
    <path d="M 627.598378 647.208 
L 630.305712 647.208 
L 630.305712 521.13026 
L 627.598378 521.13026 
z
" clip-path="url(#pd3e0a0cb70)" style="fill: #1f77b4"/>
   </g>
   <g id="patch_124">
    <path d="M 630.982546 647.208 
L 633.689881 647.208 
L 633.689881 514.406229 
L 630.982546 514.406229 
z
" clip-path="url(#pd3e0a0cb70)" style="fill: #1f77b4"/>
   </g>
   <g id="patch_125">
    <path d="M 634.366714 647.208 
L 637.074049 647.208 
L 637.074049 605.999633 
L 634.366714 605.999633 
z
" clip-path="url(#pd3e0a0cb70)" style="fill: #1f77b4"/>
   </g>
   <g id="patch_126">
    <path d="M 637.750883 647.208 
L 640.458217 647.208 
L 640.458217 516.412903 
L 637.750883 516.412903 
z
" clip-path="url(#pd3e0a0cb70)" style="fill: #1f77b4"/>
   </g>
   <g id="patch_127">
    <path d="M 641.135051 647.208 
L 643.842385 647.208 
L 643.842385 604.731853 
L 641.135051 604.731853 
z
" clip-path="url(#pd3e0a0cb70)" style="fill: #1f77b4"/>
   </g>
   <g id="patch_128">
    <path d="M 644.519219 647.208 
L 647.226554 647.208 
L 647.226554 610.684101 
L 644.519219 610.684101 
z
" clip-path="url(#pd3e0a0cb70)" style="fill: #1f77b4"/>
   </g>
   <g id="patch_129">
    <path d="M 647.903387 647.208 
L 650.610722 647.208 
L 650.610722 444.19217 
L 647.903387 444.19217 
z
" clip-path="url(#pd3e0a0cb70)" style="fill: #1f77b4"/>
   </g>
   <g id="patch_130">
    <path d="M 651.287556 647.208 
L 653.99489 647.208 
L 653.99489 578.36187 
L 651.287556 578.36187 
z
" clip-path="url(#pd3e0a0cb70)" style="fill: #1f77b4"/>
   </g>
   <g id="patch_131">
    <path d="M 654.671724 647.208 
L 657.379059 647.208 
L 657.379059 520.986388 
L 654.671724 520.986388 
z
" clip-path="url(#pd3e0a0cb70)" style="fill: #1f77b4"/>
   </g>
   <g id="patch_132">
    <path d="M 658.055892 647.208 
L 660.763227 647.208 
L 660.763227 513.569539 
L 658.055892 513.569539 
z
" clip-path="url(#pd3e0a0cb70)" style="fill: #1f77b4"/>
   </g>
   <g id="patch_133">
    <path d="M 661.440061 647.208 
L 664.147395 647.208 
L 664.147395 474.787597 
L 661.440061 474.787597 
z
" clip-path="url(#pd3e0a0cb70)" style="fill: #1f77b4"/>
   </g>
   <g id="patch_134">
    <path d="M 664.824229 647.208 
L 667.531564 647.208 
L 667.531564 447.779278 
L 664.824229 447.779278 
z
" clip-path="url(#pd3e0a0cb70)" style="fill: #1f77b4"/>
   </g>
   <g id="patch_135">
    <path d="M 668.208397 647.208 
L 670.915732 647.208 
L 670.915732 557.002119 
L 668.208397 557.002119 
z
" clip-path="url(#pd3e0a0cb70)" style="fill: #1f77b4"/>
   </g>
   <g id="patch_136">
    <path d="M 671.592566 647.208 
L 674.2999 647.208 
L 674.2999 580.219179 
L 671.592566 580.219179 
z
" clip-path="url(#pd3e0a0cb70)" style="fill: #1f77b4"/>
   </g>
   <g id="patch_137">
    <path d="M 674.976734 647.208 
L 677.684068 647.208 
L 677.684068 603.470891 
L 674.976734 603.470891 
z
" clip-path="url(#pd3e0a0cb70)" style="fill: #1f77b4"/>
   </g>
   <g id="patch_138">
    <path d="M 678.360902 647.208 
L 681.068237 647.208 
L 681.068237 593.195793 
L 678.360902 593.195793 
z
" clip-path="url(#pd3e0a0cb70)" style="fill: #1f77b4"/>
   </g>
   <g id="patch_139">
    <path d="M 681.74507 647.208 
L 684.452405 647.208 
L 684.452405 614.688356 
L 681.74507 614.688356 
z
" clip-path="url(#pd3e0a0cb70)" style="fill: #1f77b4"/>
   </g>
   <g id="patch_140">
    <path d="M 685.129239 647.208 
L 687.836573 647.208 
L 687.836573 618.777455 
L 685.129239 618.777455 
z
" clip-path="url(#pd3e0a0cb70)" style="fill: #1f77b4"/>
   </g>
   <g id="patch_141">
    <path d="M 688.513407 647.208 
L 691.220742 647.208 
L 691.220742 626.244615 
L 688.513407 626.244615 
z
" clip-path="url(#pd3e0a0cb70)" style="fill: #1f77b4"/>
   </g>
   <g id="patch_142">
    <path d="M 691.897575 647.208 
L 694.60491 647.208 
L 694.60491 619.892559 
L 691.897575 619.892559 
z
" clip-path="url(#pd3e0a0cb70)" style="fill: #1f77b4"/>
   </g>
   <g id="patch_143">
    <path d="M 695.281744 647.208 
L 697.989078 647.208 
L 697.989078 621.929148 
L 695.281744 621.929148 
z
" clip-path="url(#pd3e0a0cb70)" style="fill: #1f77b4"/>
   </g>
   <g id="patch_144">
    <path d="M 698.665912 647.208 
L 701.373247 647.208 
L 701.373247 619.597776 
L 698.665912 619.597776 
z
" clip-path="url(#pd3e0a0cb70)" style="fill: #1f77b4"/>
   </g>
   <g id="patch_145">
    <path d="M 702.05008 647.208 
L 704.757415 647.208 
L 704.757415 616.108619 
L 702.05008 616.108619 
z
" clip-path="url(#pd3e0a0cb70)" style="fill: #1f77b4"/>
   </g>
   <g id="patch_146">
    <path d="M 705.434249 647.208 
L 708.141583 647.208 
L 708.141583 527.427131 
L 705.434249 527.427131 
z
" clip-path="url(#pd3e0a0cb70)" style="fill: #1f77b4"/>
   </g>
   <g id="patch_147">
    <path d="M 708.818417 647.208 
L 711.525751 647.208 
L 711.525751 611.136705 
L 708.818417 611.136705 
z
" clip-path="url(#pd3e0a0cb70)" style="fill: #1f77b4"/>
   </g>
   <g id="patch_148">
    <path d="M 712.202585 647.208 
L 714.90992 647.208 
L 714.90992 615.100963 
L 712.202585 615.100963 
z
" clip-path="url(#pd3e0a0cb70)" style="fill: #1f77b4"/>
   </g>
   <g id="patch_149">
    <path d="M 715.586753 647.208 
L 718.294088 647.208 
L 718.294088 583.559643 
L 715.586753 583.559643 
z
" clip-path="url(#pd3e0a0cb70)" style="fill: #1f77b4"/>
   </g>
   <g id="patch_150">
    <path d="M 718.970922 647.208 
L 721.678256 647.208 
L 721.678256 584.191229 
L 718.970922 584.191229 
z
" clip-path="url(#pd3e0a0cb70)" style="fill: #1f77b4"/>
   </g>
   <g id="patch_151">
    <path d="M 722.35509 647.208 
L 725.062425 647.208 
L 725.062425 616.658202 
L 722.35509 616.658202 
z
" clip-path="url(#pd3e0a0cb70)" style="fill: #1f77b4"/>
   </g>
   <g id="patch_152">
    <path d="M 725.739258 647.208 
L 728.446593 647.208 
L 728.446593 588.443092 
L 725.739258 588.443092 
z
" clip-path="url(#pd3e0a0cb70)" style="fill: #1f77b4"/>
   </g>
   <g id="patch_153">
    <path d="M 729.123427 647.208 
L 731.830761 647.208 
L 731.830761 617.340091 
L 729.123427 617.340091 
z
" clip-path="url(#pd3e0a0cb70)" style="fill: #1f77b4"/>
   </g>
   <g id="patch_154">
    <path d="M 732.507595 647.208 
L 735.21493 647.208 
L 735.21493 612.500959 
L 732.507595 612.500959 
z
" clip-path="url(#pd3e0a0cb70)" style="fill: #1f77b4"/>
   </g>
   <g id="patch_155">
    <path d="M 735.891763 647.208 
L 738.599098 647.208 
L 738.599098 564.3027 
L 735.891763 564.3027 
z
" clip-path="url(#pd3e0a0cb70)" style="fill: #1f77b4"/>
   </g>
   <g id="patch_156">
    <path d="M 739.275932 647.208 
L 741.983266 647.208 
L 741.983266 616.613222 
L 739.275932 616.613222 
z
" clip-path="url(#pd3e0a0cb70)" style="fill: #1f77b4"/>
   </g>
   <g id="patch_157">
    <path d="M 742.6601 647.208 
L 745.367434 647.208 
L 745.367434 579.310543 
L 742.6601 579.310543 
z
" clip-path="url(#pd3e0a0cb70)" style="fill: #1f77b4"/>
   </g>
   <g id="patch_158">
    <path d="M 746.044268 647.208 
L 748.751603 647.208 
L 748.751603 548.664471 
L 746.044268 548.664471 
z
" clip-path="url(#pd3e0a0cb70)" style="fill: #1f77b4"/>
   </g>
   <g id="patch_159">
    <path d="M 749.428436 647.208 
L 752.135771 647.208 
L 752.135771 597.262765 
L 749.428436 597.262765 
z
" clip-path="url(#pd3e0a0cb70)" style="fill: #1f77b4"/>
   </g>
   <g id="patch_160">
    <path d="M 752.812605 647.208 
L 755.519939 647.208 
L 755.519939 600.533362 
L 752.812605 600.533362 
z
" clip-path="url(#pd3e0a0cb70)" style="fill: #1f77b4"/>
   </g>
   <g id="patch_161">
    <path d="M 756.196773 647.208 
L 758.904108 647.208 
L 758.904108 575.691951 
L 756.196773 575.691951 
z
" clip-path="url(#pd3e0a0cb70)" style="fill: #1f77b4"/>
   </g>
   <g id="patch_162">
    <path d="M 759.580941 647.208 
L 762.288276 647.208 
L 762.288276 584.639486 
L 759.580941 584.639486 
z
" clip-path="url(#pd3e0a0cb70)" style="fill: #1f77b4"/>
   </g>
   <g id="patch_163">
    <path d="M 762.96511 647.208 
L 765.672444 647.208 
L 765.672444 603.004283 
L 762.96511 603.004283 
z
" clip-path="url(#pd3e0a0cb70)" style="fill: #1f77b4"/>
   </g>
   <g id="patch_164">
    <path d="M 766.349278 647.208 
L 769.056613 647.208 
L 769.056613 526.752709 
L 766.349278 526.752709 
z
" clip-path="url(#pd3e0a0cb70)" style="fill: #1f77b4"/>
   </g>
   <g id="patch_165">
    <path d="M 769.733446 647.208 
L 772.440781 647.208 
L 772.440781 557.918994 
L 769.733446 557.918994 
z
" clip-path="url(#pd3e0a0cb70)" style="fill: #1f77b4"/>
   </g>
   <g id="patch_166">
    <path d="M 773.117615 647.208 
L 775.824949 647.208 
L 775.824949 562.152835 
L 773.117615 562.152835 
z
" clip-path="url(#pd3e0a0cb70)" style="fill: #1f77b4"/>
   </g>
   <g id="patch_167">
    <path d="M 776.501783 647.208 
L 779.209117 647.208 
L 779.209117 558.203301 
L 776.501783 558.203301 
z
" clip-path="url(#pd3e0a0cb70)" style="fill: #1f77b4"/>
   </g>
   <g id="patch_168">
    <path d="M 779.885951 647.208 
L 782.593286 647.208 
L 782.593286 574.44445 
L 779.885951 574.44445 
z
" clip-path="url(#pd3e0a0cb70)" style="fill: #1f77b4"/>
   </g>
   <g id="patch_169">
    <path d="M 783.270119 647.208 
L 785.977454 647.208 
L 785.977454 551.339855 
L 783.270119 551.339855 
z
" clip-path="url(#pd3e0a0cb70)" style="fill: #1f77b4"/>
   </g>
   <g id="patch_170">
    <path d="M 786.654288 647.208 
L 789.361622 647.208 
L 789.361622 592.273507 
L 786.654288 592.273507 
z
" clip-path="url(#pd3e0a0cb70)" style="fill: #1f77b4"/>
   </g>
   <g id="patch_171">
    <path d="M 790.038456 647.208 
L 792.745791 647.208 
L 792.745791 522.775471 
L 790.038456 522.775471 
z
" clip-path="url(#pd3e0a0cb70)" style="fill: #1f77b4"/>
   </g>
   <g id="patch_172">
    <path d="M 793.422624 647.208 
L 796.129959 647.208 
L 796.129959 595.937451 
L 793.422624 595.937451 
z
" clip-path="url(#pd3e0a0cb70)" style="fill: #1f77b4"/>
   </g>
   <g id="patch_173">
    <path d="M 796.806793 647.208 
L 799.514127 647.208 
L 799.514127 599.644725 
L 796.806793 599.644725 
z
" clip-path="url(#pd3e0a0cb70)" style="fill: #1f77b4"/>
   </g>
   <g id="patch_174">
    <path d="M 800.190961 647.208 
L 802.898296 647.208 
L 802.898296 604.288211 
L 800.190961 604.288211 
z
" clip-path="url(#pd3e0a0cb70)" style="fill: #1f77b4"/>
   </g>
   <g id="patch_175">
    <path d="M 803.575129 647.208 
L 806.282464 647.208 
L 806.282464 593.341079 
L 803.575129 593.341079 
z
" clip-path="url(#pd3e0a0cb70)" style="fill: #1f77b4"/>
   </g>
   <g id="patch_176">
    <path d="M 806.959297 647.208 
L 809.666632 647.208 
L 809.666632 566.041662 
L 806.959297 566.041662 
z
" clip-path="url(#pd3e0a0cb70)" style="fill: #1f77b4"/>
   </g>
   <g id="patch_177">
    <path d="M 810.343466 647.208 
L 813.0508 647.208 
L 813.0508 560.959578 
L 810.343466 560.959578 
z
" clip-path="url(#pd3e0a0cb70)" style="fill: #1f77b4"/>
   </g>
   <g id="patch_178">
    <path d="M 813.727634 647.208 
L 816.434969 647.208 
L 816.434969 465.595329 
L 813.727634 465.595329 
z
" clip-path="url(#pd3e0a0cb70)" style="fill: #1f77b4"/>
   </g>
   <g id="patch_179">
    <path d="M 817.111802 647.208 
L 819.819137 647.208 
L 819.819137 612.534737 
L 817.111802 612.534737 
z
" clip-path="url(#pd3e0a0cb70)" style="fill: #1f77b4"/>
   </g>
   <g id="patch_180">
    <path d="M 820.495971 647.208 
L 823.203305 647.208 
L 823.203305 571.43341 
L 820.495971 571.43341 
z
" clip-path="url(#pd3e0a0cb70)" style="fill: #1f77b4"/>
   </g>
   <g id="patch_181">
    <path d="M 823.880139 647.208 
L 826.587474 647.208 
L 826.587474 581.279106 
L 823.880139 581.279106 
z
" clip-path="url(#pd3e0a0cb70)" style="fill: #1f77b4"/>
   </g>
   <g id="patch_182">
    <path d="M 827.264307 647.208 
L 829.971642 647.208 
L 829.971642 595.798188 
L 827.264307 595.798188 
z
" clip-path="url(#pd3e0a0cb70)" style="fill: #1f77b4"/>
   </g>
   <g id="patch_183">
    <path d="M 830.648476 647.208 
L 833.35581 647.208 
L 833.35581 539.957146 
L 830.648476 539.957146 
z
" clip-path="url(#pd3e0a0cb70)" style="fill: #1f77b4"/>
   </g>
   <g id="patch_184">
    <path d="M 834.032644 647.208 
L 836.739979 647.208 
L 836.739979 568.945593 
L 834.032644 568.945593 
z
" clip-path="url(#pd3e0a0cb70)" style="fill: #1f77b4"/>
   </g>
   <g id="patch_185">
    <path d="M 837.416812 647.208 
L 840.124147 647.208 
L 840.124147 597.031174 
L 837.416812 597.031174 
z
" clip-path="url(#pd3e0a0cb70)" style="fill: #1f77b4"/>
   </g>
   <g id="patch_186">
    <path d="M 840.80098 647.208 
L 843.508315 647.208 
L 843.508315 572.005181 
L 840.80098 572.005181 
z
" clip-path="url(#pd3e0a0cb70)" style="fill: #1f77b4"/>
   </g>
   <g id="patch_187">
    <path d="M 844.185149 647.208 
L 846.892483 647.208 
L 846.892483 594.595907 
L 844.185149 594.595907 
z
" clip-path="url(#pd3e0a0cb70)" style="fill: #1f77b4"/>
   </g>
   <g id="patch_188">
    <path d="M 847.569317 647.208 
L 850.276652 647.208 
L 850.276652 601.567852 
L 847.569317 601.567852 
z
" clip-path="url(#pd3e0a0cb70)" style="fill: #1f77b4"/>
   </g>
   <g id="patch_189">
    <path d="M 850.953485 647.208 
L 853.66082 647.208 
L 853.66082 570.37897 
L 850.953485 570.37897 
z
" clip-path="url(#pd3e0a0cb70)" style="fill: #1f77b4"/>
   </g>
   <g id="patch_190">
    <path d="M 854.337654 647.208 
L 857.044988 647.208 
L 857.044988 593.725703 
L 854.337654 593.725703 
z
" clip-path="url(#pd3e0a0cb70)" style="fill: #1f77b4"/>
   </g>
   <g id="patch_191">
    <path d="M 857.721822 647.208 
L 860.429157 647.208 
L 860.429157 614.739405 
L 857.721822 614.739405 
z
" clip-path="url(#pd3e0a0cb70)" style="fill: #1f77b4"/>
   </g>
   <g id="patch_192">
    <path d="M 861.10599 647.208 
L 863.813325 647.208 
L 863.813325 492.474132 
L 861.10599 492.474132 
z
" clip-path="url(#pd3e0a0cb70)" style="fill: #1f77b4"/>
   </g>
   <g id="patch_193">
    <path d="M 864.490159 647.208 
L 867.197493 647.208 
L 867.197493 608.281355 
L 864.490159 608.281355 
z
" clip-path="url(#pd3e0a0cb70)" style="fill: #1f77b4"/>
   </g>
   <g id="patch_194">
    <path d="M 867.874327 647.208 
L 870.581662 647.208 
L 870.581662 598.982651 
L 867.874327 598.982651 
z
" clip-path="url(#pd3e0a0cb70)" style="fill: #1f77b4"/>
   </g>
   <g id="patch_195">
    <path d="M 871.258495 647.208 
L 873.96583 647.208 
L 873.96583 565.383065 
L 871.258495 565.383065 
z
" clip-path="url(#pd3e0a0cb70)" style="fill: #1f77b4"/>
   </g>
   <g id="patch_196">
    <path d="M 874.642663 647.208 
L 877.349998 647.208 
L 877.349998 565.7968 
L 874.642663 565.7968 
z
" clip-path="url(#pd3e0a0cb70)" style="fill: #1f77b4"/>
   </g>
   <g id="patch_197">
    <path d="M 878.026832 647.208 
L 880.734166 647.208 
L 880.734166 613.664146 
L 878.026832 613.664146 
z
" clip-path="url(#pd3e0a0cb70)" style="fill: #1f77b4"/>
   </g>
   <g id="patch_198">
    <path d="M 881.411 647.208 
L 884.118335 647.208 
L 884.118335 564.799584 
L 881.411 564.799584 
z
" clip-path="url(#pd3e0a0cb70)" style="fill: #1f77b4"/>
   </g>
   <g id="patch_199">
    <path d="M 884.795168 647.208 
L 887.502503 647.208 
L 887.502503 588.646458 
L 884.795168 588.646458 
z
" clip-path="url(#pd3e0a0cb70)" style="fill: #1f77b4"/>
   </g>
   <g id="patch_200">
    <path d="M 888.179337 647.208 
L 890.886671 647.208 
L 890.886671 489.714678 
L 888.179337 489.714678 
z
" clip-path="url(#pd3e0a0cb70)" style="fill: #1f77b4"/>
   </g>
   <g id="patch_201">
    <path d="M 891.563505 647.208 
L 894.27084 647.208 
L 894.27084 546.493054 
L 891.563505 546.493054 
z
" clip-path="url(#pd3e0a0cb70)" style="fill: #1f77b4"/>
   </g>
   <g id="patch_202">
    <path d="M 894.947673 647.208 
L 897.655008 647.208 
L 897.655008 549.46781 
L 894.947673 549.46781 
z
" clip-path="url(#pd3e0a0cb70)" style="fill: #1f77b4"/>
   </g>
   <g id="patch_203">
    <path d="M 898.331842 647.208 
L 901.039176 647.208 
L 901.039176 594.285009 
L 898.331842 594.285009 
z
" clip-path="url(#pd3e0a0cb70)" style="fill: #1f77b4"/>
   </g>
   <g id="patch_204">
    <path d="M 901.71601 647.208 
L 904.423344 647.208 
L 904.423344 504.649583 
L 901.71601 504.649583 
z
" clip-path="url(#pd3e0a0cb70)" style="fill: #1f77b4"/>
   </g>
   <g id="patch_205">
    <path d="M 905.100178 647.208 
L 907.807513 647.208 
L 907.807513 458.732686 
L 905.100178 458.732686 
z
" clip-path="url(#pd3e0a0cb70)" style="fill: #1f77b4"/>
   </g>
   <g id="patch_206">
    <path d="M 908.484346 647.208 
L 911.191681 647.208 
L 911.191681 468.361501 
L 908.484346 468.361501 
z
" clip-path="url(#pd3e0a0cb70)" style="fill: #1f77b4"/>
   </g>
   <g id="patch_207">
    <path d="M 911.868515 647.208 
L 914.575849 647.208 
L 914.575849 538.169262 
L 911.868515 538.169262 
z
" clip-path="url(#pd3e0a0cb70)" style="fill: #1f77b4"/>
   </g>
   <g id="patch_208">
    <path d="M 915.252683 647.208 
L 917.960018 647.208 
L 917.960018 585.543904 
L 915.252683 585.543904 
z
" clip-path="url(#pd3e0a0cb70)" style="fill: #1f77b4"/>
   </g>
   <g id="patch_209">
    <path d="M 918.636851 647.208 
L 921.344186 647.208 
L 921.344186 593.967211 
L 918.636851 593.967211 
z
" clip-path="url(#pd3e0a0cb70)" style="fill: #1f77b4"/>
   </g>
   <g id="patch_210">
    <path d="M 922.02102 647.208 
L 924.728354 647.208 
L 924.728354 512.361619 
L 922.02102 512.361619 
z
" clip-path="url(#pd3e0a0cb70)" style="fill: #1f77b4"/>
   </g>
   <g id="patch_211">
    <path d="M 925.405188 647.208 
L 928.112523 647.208 
L 928.112523 370.229581 
L 925.405188 370.229581 
z
" clip-path="url(#pd3e0a0cb70)" style="fill: #1f77b4"/>
   </g>
   <g id="patch_212">
    <path d="M 928.789356 647.208 
L 931.496691 647.208 
L 931.496691 458.132804 
L 928.789356 458.132804 
z
" clip-path="url(#pd3e0a0cb70)" style="fill: #1f77b4"/>
   </g>
   <g id="patch_213">
    <path d="M 932.173525 647.208 
L 934.880859 647.208 
L 934.880859 550.413459 
L 932.173525 550.413459 
z
" clip-path="url(#pd3e0a0cb70)" style="fill: #1f77b4"/>
   </g>
   <g id="patch_214">
    <path d="M 935.557693 647.208 
L 938.265027 647.208 
L 938.265027 255.506585 
L 935.557693 255.506585 
z
" clip-path="url(#pd3e0a0cb70)" style="fill: #1f77b4"/>
   </g>
   <g id="patch_215">
    <path d="M 938.941861 647.208 
L 941.649196 647.208 
L 941.649196 325.496285 
L 938.941861 325.496285 
z
" clip-path="url(#pd3e0a0cb70)" style="fill: #1f77b4"/>
   </g>
   <g id="patch_216">
    <path d="M 942.326029 647.208 
L 945.033364 647.208 
L 945.033364 479.033035 
L 942.326029 479.033035 
z
" clip-path="url(#pd3e0a0cb70)" style="fill: #1f77b4"/>
   </g>
   <g id="patch_217">
    <path d="M 945.710198 647.208 
L 948.417532 647.208 
L 948.417532 376.484431 
L 945.710198 376.484431 
z
" clip-path="url(#pd3e0a0cb70)" style="fill: #1f77b4"/>
   </g>
   <g id="patch_218">
    <path d="M 949.094366 647.208 
L 951.801701 647.208 
L 951.801701 468.585774 
L 949.094366 468.585774 
z
" clip-path="url(#pd3e0a0cb70)" style="fill: #1f77b4"/>
   </g>
   <g id="patch_219">
    <path d="M 952.478534 647.208 
L 955.185869 647.208 
L 955.185869 569.744991 
L 952.478534 569.744991 
z
" clip-path="url(#pd3e0a0cb70)" style="fill: #1f77b4"/>
   </g>
   <g id="patch_220">
    <path d="M 955.862703 647.208 
L 958.570037 647.208 
L 958.570037 567.821302 
L 955.862703 567.821302 
z
" clip-path="url(#pd3e0a0cb70)" style="fill: #1f77b4"/>
   </g>
   <g id="patch_221">
    <path d="M 959.246871 647.208 
L 961.954206 647.208 
L 961.954206 424.573684 
L 959.246871 424.573684 
z
" clip-path="url(#pd3e0a0cb70)" style="fill: #1f77b4"/>
   </g>
   <g id="patch_222">
    <path d="M 962.631039 647.208 
L 965.338374 647.208 
L 965.338374 533.446773 
L 962.631039 533.446773 
z
" clip-path="url(#pd3e0a0cb70)" style="fill: #1f77b4"/>
   </g>
   <g id="patch_223">
    <path d="M 966.015208 647.208 
L 968.722542 647.208 
L 968.722542 438.011505 
L 966.015208 438.011505 
z
" clip-path="url(#pd3e0a0cb70)" style="fill: #1f77b4"/>
   </g>
   <g id="patch_224">
    <path d="M 969.399376 647.208 
L 972.10671 647.208 
L 972.10671 475.814489 
L 969.399376 475.814489 
z
" clip-path="url(#pd3e0a0cb70)" style="fill: #1f77b4"/>
   </g>
   <g id="patch_225">
    <path d="M 972.783544 647.208 
L 975.490879 647.208 
L 975.490879 565.037811 
L 972.783544 565.037811 
z
" clip-path="url(#pd3e0a0cb70)" style="fill: #1f77b4"/>
   </g>
   <g id="patch_226">
    <path d="M 976.167712 647.208 
L 978.875047 647.208 
L 978.875047 505.707937 
L 976.167712 505.707937 
z
" clip-path="url(#pd3e0a0cb70)" style="fill: #1f77b4"/>
   </g>
   <g id="patch_227">
    <path d="M 979.551881 647.208 
L 982.259215 647.208 
L 982.259215 529.840494 
L 979.551881 529.840494 
z
" clip-path="url(#pd3e0a0cb70)" style="fill: #1f77b4"/>
   </g>
   <g id="patch_228">
    <path d="M 982.936049 647.208 
L 985.643384 647.208 
L 985.643384 551.015197 
L 982.936049 551.015197 
z
" clip-path="url(#pd3e0a0cb70)" style="fill: #1f77b4"/>
   </g>
   <g id="patch_229">
    <path d="M 986.320217 647.208 
L 989.027552 647.208 
L 989.027552 544.488459 
L 986.320217 544.488459 
z
" clip-path="url(#pd3e0a0cb70)" style="fill: #1f77b4"/>
   </g>
   <g id="patch_230">
    <path d="M 989.704386 647.208 
L 992.41172 647.208 
L 992.41172 564.364759 
L 989.704386 564.364759 
z
" clip-path="url(#pd3e0a0cb70)" style="fill: #1f77b4"/>
   </g>
   <g id="patch_231">
    <path d="M 993.088554 647.208 
L 995.795889 647.208 
L 995.795889 539.998115 
L 993.088554 539.998115 
z
" clip-path="url(#pd3e0a0cb70)" style="fill: #1f77b4"/>
   </g>
   <g id="patch_232">
    <path d="M 996.472722 647.208 
L 999.180057 647.208 
L 999.180057 428.185542 
L 996.472722 428.185542 
z
" clip-path="url(#pd3e0a0cb70)" style="fill: #1f77b4"/>
   </g>
   <g id="patch_233">
    <path d="M 999.856891 647.208 
L 1002.564225 647.208 
L 1002.564225 453.114243 
L 999.856891 453.114243 
z
" clip-path="url(#pd3e0a0cb70)" style="fill: #1f77b4"/>
   </g>
   <g id="patch_234">
    <path d="M 1003.241059 647.208 
L 1005.948393 647.208 
L 1005.948393 501.081553 
L 1003.241059 501.081553 
z
" clip-path="url(#pd3e0a0cb70)" style="fill: #1f77b4"/>
   </g>
   <g id="patch_235">
    <path d="M 1006.625227 647.208 
L 1009.332562 647.208 
L 1009.332562 438.367406 
L 1006.625227 438.367406 
z
" clip-path="url(#pd3e0a0cb70)" style="fill: #1f77b4"/>
   </g>
   <g id="patch_236">
    <path d="M 1010.009395 647.208 
L 1012.71673 647.208 
L 1012.71673 547.296231 
L 1010.009395 547.296231 
z
" clip-path="url(#pd3e0a0cb70)" style="fill: #1f77b4"/>
   </g>
   <g id="patch_237">
    <path d="M 1013.393564 647.208 
L 1016.100898 647.208 
L 1016.100898 552.442662 
L 1013.393564 552.442662 
z
" clip-path="url(#pd3e0a0cb70)" style="fill: #1f77b4"/>
   </g>
   <g id="patch_238">
    <path d="M 1016.777732 647.208 
L 1019.485067 647.208 
L 1019.485067 502.366455 
L 1016.777732 502.366455 
z
" clip-path="url(#pd3e0a0cb70)" style="fill: #1f77b4"/>
   </g>
   <g id="patch_239">
    <path d="M 1020.1619 647.208 
L 1022.869235 647.208 
L 1022.869235 516.316731 
L 1020.1619 516.316731 
z
" clip-path="url(#pd3e0a0cb70)" style="fill: #1f77b4"/>
   </g>
   <g id="patch_240">
    <path d="M 1023.546069 647.208 
L 1026.253403 647.208 
L 1026.253403 567.085307 
L 1023.546069 567.085307 
z
" clip-path="url(#pd3e0a0cb70)" style="fill: #1f77b4"/>
   </g>
   <g id="patch_241">
    <path d="M 1026.930237 647.208 
L 1029.637572 647.208 
L 1029.637572 567.675894 
L 1026.930237 567.675894 
z
" clip-path="url(#pd3e0a0cb70)" style="fill: #1f77b4"/>
   </g>
   <g id="patch_242">
    <path d="M 1030.314405 647.208 
L 1033.02174 647.208 
L 1033.02174 449.007978 
L 1030.314405 449.007978 
z
" clip-path="url(#pd3e0a0cb70)" style="fill: #1f77b4"/>
   </g>
   <g id="patch_243">
    <path d="M 1033.698574 647.208 
L 1036.405908 647.208 
L 1036.405908 556.355873 
L 1033.698574 556.355873 
z
" clip-path="url(#pd3e0a0cb70)" style="fill: #1f77b4"/>
   </g>
   <g id="patch_244">
    <path d="M 1037.082742 647.208 
L 1039.790076 647.208 
L 1039.790076 599.737515 
L 1037.082742 599.737515 
z
" clip-path="url(#pd3e0a0cb70)" style="fill: #1f77b4"/>
   </g>
   <g id="patch_245">
    <path d="M 1040.46691 647.208 
L 1043.174245 647.208 
L 1043.174245 626.848769 
L 1040.46691 626.848769 
z
" clip-path="url(#pd3e0a0cb70)" style="fill: #1f77b4"/>
   </g>
   <g id="patch_246">
    <path d="M 1043.851078 647.208 
L 1046.558413 647.208 
L 1046.558413 591.224496 
L 1043.851078 591.224496 
z
" clip-path="url(#pd3e0a0cb70)" style="fill: #1f77b4"/>
   </g>
   <g id="patch_247">
    <path d="M 1047.235247 647.208 
L 1049.942581 647.208 
L 1049.942581 624.046798 
L 1047.235247 624.046798 
z
" clip-path="url(#pd3e0a0cb70)" style="fill: #1f77b4"/>
   </g>
   <g id="patch_248">
    <path d="M 1050.619415 647.208 
L 1053.32675 647.208 
L 1053.32675 478.263141 
L 1050.619415 478.263141 
z
" clip-path="url(#pd3e0a0cb70)" style="fill: #1f77b4"/>
   </g>
   <g id="patch_249">
    <path d="M 1054.003583 647.208 
L 1056.710918 647.208 
L 1056.710918 554.328881 
L 1054.003583 554.328881 
z
" clip-path="url(#pd3e0a0cb70)" style="fill: #1f77b4"/>
   </g>
   <g id="patch_250">
    <path d="M 1057.387752 647.208 
L 1060.095086 647.208 
L 1060.095086 530.255702 
L 1057.387752 530.255702 
z
" clip-path="url(#pd3e0a0cb70)" style="fill: #1f77b4"/>
   </g>
   <g id="patch_251">
    <path d="M 1060.77192 647.208 
L 1063.479255 647.208 
L 1063.479255 544.419023 
L 1060.77192 544.419023 
z
" clip-path="url(#pd3e0a0cb70)" style="fill: #1f77b4"/>
   </g>
   <g id="patch_252">
    <path d="M 1064.156088 647.208 
L 1066.863423 647.208 
L 1066.863423 492.726555 
L 1064.156088 492.726555 
z
" clip-path="url(#pd3e0a0cb70)" style="fill: #1f77b4"/>
   </g>
   <g id="patch_253">
    <path d="M 1067.540256 647.208 
L 1070.247591 647.208 
L 1070.247591 500.355802 
L 1067.540256 500.355802 
z
" clip-path="url(#pd3e0a0cb70)" style="fill: #1f77b4"/>
   </g>
   <g id="patch_254">
    <path d="M 1070.924425 647.208 
L 1073.631759 647.208 
L 1073.631759 546.688541 
L 1070.924425 546.688541 
z
" clip-path="url(#pd3e0a0cb70)" style="fill: #1f77b4"/>
   </g>
   <g id="patch_255">
    <path d="M 1074.308593 647.208 
L 1077.015928 647.208 
L 1077.015928 523.268917 
L 1074.308593 523.268917 
z
" clip-path="url(#pd3e0a0cb70)" style="fill: #1f77b4"/>
   </g>
   <g id="patch_256">
    <path d="M 1077.692761 647.208 
L 1080.400096 647.208 
L 1080.400096 437.181475 
L 1077.692761 437.181475 
z
" clip-path="url(#pd3e0a0cb70)" style="fill: #1f77b4"/>
   </g>
   <g id="patch_257">
    <path d="M 1081.07693 647.208 
L 1083.784264 647.208 
L 1083.784264 516.570254 
L 1081.07693 516.570254 
z
" clip-path="url(#pd3e0a0cb70)" style="fill: #1f77b4"/>
   </g>
   <g id="patch_258">
    <path d="M 1084.461098 647.208 
L 1087.168433 647.208 
L 1087.168433 571.774048 
L 1084.461098 571.774048 
z
" clip-path="url(#pd3e0a0cb70)" style="fill: #1f77b4"/>
   </g>
   <g id="patch_259">
    <path d="M 1087.845266 647.208 
L 1090.552601 647.208 
L 1090.552601 621.047477 
L 1087.845266 621.047477 
z
" clip-path="url(#pd3e0a0cb70)" style="fill: #1f77b4"/>
   </g>
   <g id="patch_260">
    <path d="M 1091.229435 647.208 
L 1093.936769 647.208 
L 1093.936769 514.748656 
L 1091.229435 514.748656 
z
" clip-path="url(#pd3e0a0cb70)" style="fill: #1f77b4"/>
   </g>
   <g id="patch_261">
    <path d="M 1094.613603 647.208 
L 1097.320938 647.208 
L 1097.320938 501.142136 
L 1094.613603 501.142136 
z
" clip-path="url(#pd3e0a0cb70)" style="fill: #1f77b4"/>
   </g>
   <g id="patch_262">
    <path d="M 1097.997771 647.208 
L 1100.705106 647.208 
L 1100.705106 535.36003 
L 1097.997771 535.36003 
z
" clip-path="url(#pd3e0a0cb70)" style="fill: #1f77b4"/>
   </g>
   <g id="patch_263">
    <path d="M 1101.381939 647.208 
L 1104.089274 647.208 
L 1104.089274 504.193405 
L 1101.381939 504.193405 
z
" clip-path="url(#pd3e0a0cb70)" style="fill: #1f77b4"/>
   </g>
   <g id="patch_264">
    <path d="M 1104.766108 647.208 
L 1107.473442 647.208 
L 1107.473442 399.351856 
L 1104.766108 399.351856 
z
" clip-path="url(#pd3e0a0cb70)" style="fill: #1f77b4"/>
   </g>
   <g id="patch_265">
    <path d="M 1108.150276 647.208 
L 1110.857611 647.208 
L 1110.857611 401.876973 
L 1108.150276 401.876973 
z
" clip-path="url(#pd3e0a0cb70)" style="fill: #1f77b4"/>
   </g>
   <g id="patch_266">
    <path d="M 1111.534444 647.208 
L 1114.241779 647.208 
L 1114.241779 113.928 
L 1111.534444 113.928 
z
" clip-path="url(#pd3e0a0cb70)" style="fill: #1f77b4"/>
   </g>
   <g id="patch_267">
    <path d="M 1114.918613 647.208 
L 1117.625947 647.208 
L 1117.625947 434.009119 
L 1114.918613 434.009119 
z
" clip-path="url(#pd3e0a0cb70)" style="fill: #1f77b4"/>
   </g>
   <g id="patch_268">
    <path d="M 1118.302781 647.208 
L 1121.010116 647.208 
L 1121.010116 476.47658 
L 1118.302781 476.47658 
z
" clip-path="url(#pd3e0a0cb70)" style="fill: #1f77b4"/>
   </g>
   <g id="patch_269">
    <path d="M 1121.686949 647.208 
L 1124.394284 647.208 
L 1124.394284 385.026805 
L 1121.686949 385.026805 
z
" clip-path="url(#pd3e0a0cb70)" style="fill: #1f77b4"/>
   </g>
   <g id="patch_270">
    <path d="M 1125.071118 647.208 
L 1127.778452 647.208 
L 1127.778452 499.907417 
L 1125.071118 499.907417 
z
" clip-path="url(#pd3e0a0cb70)" style="fill: #1f77b4"/>
   </g>
   <g id="patch_271">
    <path d="M 1128.455286 647.208 
L 1131.162621 647.208 
L 1131.162621 215.964229 
L 1128.455286 215.964229 
z
" clip-path="url(#pd3e0a0cb70)" style="fill: #1f77b4"/>
   </g>
   <g id="patch_272">
    <path d="M 1131.839454 647.208 
L 1134.546789 647.208 
L 1134.546789 473.26565 
L 1131.839454 473.26565 
z
" clip-path="url(#pd3e0a0cb70)" style="fill: #1f77b4"/>
   </g>
   <g id="patch_273">
    <path d="M 1135.223622 647.208 
L 1137.930957 647.208 
L 1137.930957 312.170975 
L 1135.223622 312.170975 
z
" clip-path="url(#pd3e0a0cb70)" style="fill: #1f77b4"/>
   </g>
   <g id="patch_274">
    <path d="M 1138.607791 647.208 
L 1141.315125 647.208 
L 1141.315125 505.686294 
L 1138.607791 505.686294 
z
" clip-path="url(#pd3e0a0cb70)" style="fill: #1f77b4"/>
   </g>
   <g id="patch_275">
    <path d="M 1141.991959 647.208 
L 1144.699294 647.208 
L 1144.699294 529.688549 
L 1141.991959 529.688549 
z
" clip-path="url(#pd3e0a0cb70)" style="fill: #1f77b4"/>
   </g>
   <g id="patch_276">
    <path d="M 1145.376127 647.208 
L 1148.083462 647.208 
L 1148.083462 261.55509 
L 1145.376127 261.55509 
z
" clip-path="url(#pd3e0a0cb70)" style="fill: #1f77b4"/>
   </g>
   <g id="patch_277">
    <path d="M 1148.760296 647.208 
L 1151.46763 647.208 
L 1151.46763 571.346146 
L 1148.760296 571.346146 
z
" clip-path="url(#pd3e0a0cb70)" style="fill: #1f77b4"/>
   </g>
   <g id="patch_278">
    <path d="M 1152.144464 647.208 
L 1154.851799 647.208 
L 1154.851799 548.802491 
L 1152.144464 548.802491 
z
" clip-path="url(#pd3e0a0cb70)" style="fill: #1f77b4"/>
   </g>
   <g id="patch_279">
    <path d="M 1155.528632 647.208 
L 1158.235967 647.208 
L 1158.235967 558.221821 
L 1155.528632 558.221821 
z
" clip-path="url(#pd3e0a0cb70)" style="fill: #1f77b4"/>
   </g>
   <g id="patch_280">
    <path d="M 1158.912801 647.208 
L 1161.620135 647.208 
L 1161.620135 291.818101 
L 1158.912801 291.818101 
z
" clip-path="url(#pd3e0a0cb70)" style="fill: #1f77b4"/>
   </g>
   <g id="patch_281">
    <path d="M 1162.296969 647.208 
L 1165.004303 647.208 
L 1165.004303 469.799001 
L 1162.296969 469.799001 
z
" clip-path="url(#pd3e0a0cb70)" style="fill: #1f77b4"/>
   </g>
   <g id="patch_282">
    <path d="M 1165.681137 647.208 
L 1168.388472 647.208 
L 1168.388472 275.232194 
L 1165.681137 275.232194 
z
" clip-path="url(#pd3e0a0cb70)" style="fill: #1f77b4"/>
   </g>
   <g id="patch_283">
    <path d="M 1169.065305 647.208 
L 1171.77264 647.208 
L 1171.77264 569.033579 
L 1169.065305 569.033579 
z
" clip-path="url(#pd3e0a0cb70)" style="fill: #1f77b4"/>
   </g>
   <g id="patch_284">
    <path d="M 1172.449474 647.208 
L 1175.156808 647.208 
L 1175.156808 299.392799 
L 1172.449474 299.392799 
z
" clip-path="url(#pd3e0a0cb70)" style="fill: #1f77b4"/>
   </g>
   <g id="patch_285">
    <path d="M 1175.833642 647.208 
L 1178.540977 647.208 
L 1178.540977 573.007743 
L 1175.833642 573.007743 
z
" clip-path="url(#pd3e0a0cb70)" style="fill: #1f77b4"/>
   </g>
   <g id="patch_286">
    <path d="M 1179.21781 647.208 
L 1181.925145 647.208 
L 1181.925145 487.795372 
L 1179.21781 487.795372 
z
" clip-path="url(#pd3e0a0cb70)" style="fill: #1f77b4"/>
   </g>
   <g id="patch_287">
    <path d="M 1182.601979 647.208 
L 1185.309313 647.208 
L 1185.309313 400.602013 
L 1182.601979 400.602013 
z
" clip-path="url(#pd3e0a0cb70)" style="fill: #1f77b4"/>
   </g>
   <g id="patch_288">
    <path d="M 1185.986147 647.208 
L 1188.693482 647.208 
L 1188.693482 222.238444 
L 1185.986147 222.238444 
z
" clip-path="url(#pd3e0a0cb70)" style="fill: #1f77b4"/>
   </g>
   <g id="patch_289">
    <path d="M 1189.370315 647.208 
L 1192.07765 647.208 
L 1192.07765 560.999828 
L 1189.370315 560.999828 
z
" clip-path="url(#pd3e0a0cb70)" style="fill: #1f77b4"/>
   </g>
   <g id="patch_290">
    <path d="M 1192.754484 647.208 
L 1195.461818 647.208 
L 1195.461818 614.566992 
L 1192.754484 614.566992 
z
" clip-path="url(#pd3e0a0cb70)" style="fill: #1f77b4"/>
   </g>
   <g id="matplotlib.axis_1">
    <g id="xtick_1">
     <g id="line2d_1">
      <defs>
       <path id="m95a5ea3a89" d="M 0 0 
L 0 3.5 
" style="stroke: #000000; stroke-width: 0.8"/>
      </defs>
      <g>
       <use xlink:href="#m95a5ea3a89" x="219.467681" y="647.208" style="stroke: #000000; stroke-width: 0.8"/>
      </g>
     </g>
     <g id="text_1">
      <!-- 0 -->
      <g transform="translate(216.286431 661.806437) scale(0.1 -0.1)">
       <defs>
        <path id="DejaVuSans-30" d="M 2034 4250 
Q 1547 4250 1301 3770 
Q 1056 3291 1056 2328 
Q 1056 1369 1301 889 
Q 1547 409 2034 409 
Q 2525 409 2770 889 
Q 3016 1369 3016 2328 
Q 3016 3291 2770 3770 
Q 2525 4250 2034 4250 
z
M 2034 4750 
Q 2819 4750 3233 4129 
Q 3647 3509 3647 2328 
Q 3647 1150 3233 529 
Q 2819 -91 2034 -91 
Q 1250 -91 836 529 
Q 422 1150 422 2328 
Q 422 3509 836 4129 
Q 1250 4750 2034 4750 
z
" transform="scale(0.015625)"/>
       </defs>
       <use xlink:href="#DejaVuSans-30"/>
      </g>
     </g>
    </g>
    <g id="xtick_2">
     <g id="line2d_2">
      <g>
       <use xlink:href="#m95a5ea3a89" x="388.676096" y="647.208" style="stroke: #000000; stroke-width: 0.8"/>
      </g>
     </g>
     <g id="text_2">
      <!-- 50 -->
      <g transform="translate(382.313596 661.806437) scale(0.1 -0.1)">
       <defs>
        <path id="DejaVuSans-35" d="M 691 4666 
L 3169 4666 
L 3169 4134 
L 1269 4134 
L 1269 2991 
Q 1406 3038 1543 3061 
Q 1681 3084 1819 3084 
Q 2600 3084 3056 2656 
Q 3513 2228 3513 1497 
Q 3513 744 3044 326 
Q 2575 -91 1722 -91 
Q 1428 -91 1123 -41 
Q 819 9 494 109 
L 494 744 
Q 775 591 1075 516 
Q 1375 441 1709 441 
Q 2250 441 2565 725 
Q 2881 1009 2881 1497 
Q 2881 1984 2565 2268 
Q 2250 2553 1709 2553 
Q 1456 2553 1204 2497 
Q 953 2441 691 2322 
L 691 4666 
z
" transform="scale(0.015625)"/>
       </defs>
       <use xlink:href="#DejaVuSans-35"/>
       <use xlink:href="#DejaVuSans-30" transform="translate(63.623047 0)"/>
      </g>
     </g>
    </g>
    <g id="xtick_3">
     <g id="line2d_3">
      <g>
       <use xlink:href="#m95a5ea3a89" x="557.884511" y="647.208" style="stroke: #000000; stroke-width: 0.8"/>
      </g>
     </g>
     <g id="text_3">
      <!-- 100 -->
      <g transform="translate(548.340761 661.806437) scale(0.1 -0.1)">
       <defs>
        <path id="DejaVuSans-31" d="M 794 531 
L 1825 531 
L 1825 4091 
L 703 3866 
L 703 4441 
L 1819 4666 
L 2450 4666 
L 2450 531 
L 3481 531 
L 3481 0 
L 794 0 
L 794 531 
z
" transform="scale(0.015625)"/>
       </defs>
       <use xlink:href="#DejaVuSans-31"/>
       <use xlink:href="#DejaVuSans-30" transform="translate(63.623047 0)"/>
       <use xlink:href="#DejaVuSans-30" transform="translate(127.246094 0)"/>
      </g>
     </g>
    </g>
    <g id="xtick_4">
     <g id="line2d_4">
      <g>
       <use xlink:href="#m95a5ea3a89" x="727.092926" y="647.208" style="stroke: #000000; stroke-width: 0.8"/>
      </g>
     </g>
     <g id="text_4">
      <!-- 150 -->
      <g transform="translate(717.549176 661.806437) scale(0.1 -0.1)">
       <use xlink:href="#DejaVuSans-31"/>
       <use xlink:href="#DejaVuSans-35" transform="translate(63.623047 0)"/>
       <use xlink:href="#DejaVuSans-30" transform="translate(127.246094 0)"/>
      </g>
     </g>
    </g>
    <g id="xtick_5">
     <g id="line2d_5">
      <g>
       <use xlink:href="#m95a5ea3a89" x="896.301341" y="647.208" style="stroke: #000000; stroke-width: 0.8"/>
      </g>
     </g>
     <g id="text_5">
      <!-- 200 -->
      <g transform="translate(886.757591 661.806437) scale(0.1 -0.1)">
       <defs>
        <path id="DejaVuSans-32" d="M 1228 531 
L 3431 531 
L 3431 0 
L 469 0 
L 469 531 
Q 828 903 1448 1529 
Q 2069 2156 2228 2338 
Q 2531 2678 2651 2914 
Q 2772 3150 2772 3378 
Q 2772 3750 2511 3984 
Q 2250 4219 1831 4219 
Q 1534 4219 1204 4116 
Q 875 4013 500 3803 
L 500 4441 
Q 881 4594 1212 4672 
Q 1544 4750 1819 4750 
Q 2544 4750 2975 4387 
Q 3406 4025 3406 3419 
Q 3406 3131 3298 2873 
Q 3191 2616 2906 2266 
Q 2828 2175 2409 1742 
Q 1991 1309 1228 531 
z
" transform="scale(0.015625)"/>
       </defs>
       <use xlink:href="#DejaVuSans-32"/>
       <use xlink:href="#DejaVuSans-30" transform="translate(63.623047 0)"/>
       <use xlink:href="#DejaVuSans-30" transform="translate(127.246094 0)"/>
      </g>
     </g>
    </g>
    <g id="xtick_6">
     <g id="line2d_6">
      <g>
       <use xlink:href="#m95a5ea3a89" x="1065.509756" y="647.208" style="stroke: #000000; stroke-width: 0.8"/>
      </g>
     </g>
     <g id="text_6">
      <!-- 250 -->
      <g transform="translate(1055.966006 661.806437) scale(0.1 -0.1)">
       <use xlink:href="#DejaVuSans-32"/>
       <use xlink:href="#DejaVuSans-35" transform="translate(63.623047 0)"/>
       <use xlink:href="#DejaVuSans-30" transform="translate(127.246094 0)"/>
      </g>
     </g>
    </g>
    <g id="xtick_7">
     <g id="line2d_7">
      <g>
       <use xlink:href="#m95a5ea3a89" x="1234.71817" y="647.208" style="stroke: #000000; stroke-width: 0.8"/>
      </g>
     </g>
     <g id="text_7">
      <!-- 300 -->
      <g transform="translate(1225.17442 661.806437) scale(0.1 -0.1)">
       <defs>
        <path id="DejaVuSans-33" d="M 2597 2516 
Q 3050 2419 3304 2112 
Q 3559 1806 3559 1356 
Q 3559 666 3084 287 
Q 2609 -91 1734 -91 
Q 1441 -91 1130 -33 
Q 819 25 488 141 
L 488 750 
Q 750 597 1062 519 
Q 1375 441 1716 441 
Q 2309 441 2620 675 
Q 2931 909 2931 1356 
Q 2931 1769 2642 2001 
Q 2353 2234 1838 2234 
L 1294 2234 
L 1294 2753 
L 1863 2753 
Q 2328 2753 2575 2939 
Q 2822 3125 2822 3475 
Q 2822 3834 2567 4026 
Q 2313 4219 1838 4219 
Q 1578 4219 1281 4162 
Q 984 4106 628 3988 
L 628 4550 
Q 988 4650 1302 4700 
Q 1616 4750 1894 4750 
Q 2613 4750 3031 4423 
Q 3450 4097 3450 3541 
Q 3450 3153 3228 2886 
Q 3006 2619 2597 2516 
z
" transform="scale(0.015625)"/>
       </defs>
       <use xlink:href="#DejaVuSans-33"/>
       <use xlink:href="#DejaVuSans-30" transform="translate(63.623047 0)"/>
       <use xlink:href="#DejaVuSans-30" transform="translate(127.246094 0)"/>
      </g>
     </g>
    </g>
    <g id="text_8">
     <!-- dict num -->
     <g transform="translate(686.410469 675.484562) scale(0.1 -0.1)">
      <defs>
       <path id="DejaVuSans-64" d="M 2906 2969 
L 2906 4863 
L 3481 4863 
L 3481 0 
L 2906 0 
L 2906 525 
Q 2725 213 2448 61 
Q 2172 -91 1784 -91 
Q 1150 -91 751 415 
Q 353 922 353 1747 
Q 353 2572 751 3078 
Q 1150 3584 1784 3584 
Q 2172 3584 2448 3432 
Q 2725 3281 2906 2969 
z
M 947 1747 
Q 947 1113 1208 752 
Q 1469 391 1925 391 
Q 2381 391 2643 752 
Q 2906 1113 2906 1747 
Q 2906 2381 2643 2742 
Q 2381 3103 1925 3103 
Q 1469 3103 1208 2742 
Q 947 2381 947 1747 
z
" transform="scale(0.015625)"/>
       <path id="DejaVuSans-69" d="M 603 3500 
L 1178 3500 
L 1178 0 
L 603 0 
L 603 3500 
z
M 603 4863 
L 1178 4863 
L 1178 4134 
L 603 4134 
L 603 4863 
z
" transform="scale(0.015625)"/>
       <path id="DejaVuSans-63" d="M 3122 3366 
L 3122 2828 
Q 2878 2963 2633 3030 
Q 2388 3097 2138 3097 
Q 1578 3097 1268 2742 
Q 959 2388 959 1747 
Q 959 1106 1268 751 
Q 1578 397 2138 397 
Q 2388 397 2633 464 
Q 2878 531 3122 666 
L 3122 134 
Q 2881 22 2623 -34 
Q 2366 -91 2075 -91 
Q 1284 -91 818 406 
Q 353 903 353 1747 
Q 353 2603 823 3093 
Q 1294 3584 2113 3584 
Q 2378 3584 2631 3529 
Q 2884 3475 3122 3366 
z
" transform="scale(0.015625)"/>
       <path id="DejaVuSans-74" d="M 1172 4494 
L 1172 3500 
L 2356 3500 
L 2356 3053 
L 1172 3053 
L 1172 1153 
Q 1172 725 1289 603 
Q 1406 481 1766 481 
L 2356 481 
L 2356 0 
L 1766 0 
Q 1100 0 847 248 
Q 594 497 594 1153 
L 594 3053 
L 172 3053 
L 172 3500 
L 594 3500 
L 594 4494 
L 1172 4494 
z
" transform="scale(0.015625)"/>
       <path id="DejaVuSans-20" transform="scale(0.015625)"/>
       <path id="DejaVuSans-6e" d="M 3513 2113 
L 3513 0 
L 2938 0 
L 2938 2094 
Q 2938 2591 2744 2837 
Q 2550 3084 2163 3084 
Q 1697 3084 1428 2787 
Q 1159 2491 1159 1978 
L 1159 0 
L 581 0 
L 581 3500 
L 1159 3500 
L 1159 2956 
Q 1366 3272 1645 3428 
Q 1925 3584 2291 3584 
Q 2894 3584 3203 3211 
Q 3513 2838 3513 2113 
z
" transform="scale(0.015625)"/>
       <path id="DejaVuSans-75" d="M 544 1381 
L 544 3500 
L 1119 3500 
L 1119 1403 
Q 1119 906 1312 657 
Q 1506 409 1894 409 
Q 2359 409 2629 706 
Q 2900 1003 2900 1516 
L 2900 3500 
L 3475 3500 
L 3475 0 
L 2900 0 
L 2900 538 
Q 2691 219 2414 64 
Q 2138 -91 1772 -91 
Q 1169 -91 856 284 
Q 544 659 544 1381 
z
M 1991 3584 
L 1991 3584 
z
" transform="scale(0.015625)"/>
       <path id="DejaVuSans-6d" d="M 3328 2828 
Q 3544 3216 3844 3400 
Q 4144 3584 4550 3584 
Q 5097 3584 5394 3201 
Q 5691 2819 5691 2113 
L 5691 0 
L 5113 0 
L 5113 2094 
Q 5113 2597 4934 2840 
Q 4756 3084 4391 3084 
Q 3944 3084 3684 2787 
Q 3425 2491 3425 1978 
L 3425 0 
L 2847 0 
L 2847 2094 
Q 2847 2600 2669 2842 
Q 2491 3084 2119 3084 
Q 1678 3084 1418 2786 
Q 1159 2488 1159 1978 
L 1159 0 
L 581 0 
L 581 3500 
L 1159 3500 
L 1159 2956 
Q 1356 3278 1631 3431 
Q 1906 3584 2284 3584 
Q 2666 3584 2933 3390 
Q 3200 3197 3328 2828 
z
" transform="scale(0.015625)"/>
      </defs>
      <use xlink:href="#DejaVuSans-64"/>
      <use xlink:href="#DejaVuSans-69" transform="translate(63.476562 0)"/>
      <use xlink:href="#DejaVuSans-63" transform="translate(91.259766 0)"/>
      <use xlink:href="#DejaVuSans-74" transform="translate(146.240234 0)"/>
      <use xlink:href="#DejaVuSans-20" transform="translate(185.449219 0)"/>
      <use xlink:href="#DejaVuSans-6e" transform="translate(217.236328 0)"/>
      <use xlink:href="#DejaVuSans-75" transform="translate(280.615234 0)"/>
      <use xlink:href="#DejaVuSans-6d" transform="translate(343.994141 0)"/>
     </g>
    </g>
   </g>
   <g id="matplotlib.axis_2">
    <g id="ytick_1">
     <g id="line2d_8">
      <defs>
       <path id="mbf7a7f1387" d="M 0 0 
L -3.5 0 
" style="stroke: #000000; stroke-width: 0.8"/>
      </defs>
      <g>
       <use xlink:href="#mbf7a7f1387" x="172.8" y="647.208" style="stroke: #000000; stroke-width: 0.8"/>
      </g>
     </g>
     <g id="text_9">
      <!-- 0 -->
      <g transform="translate(159.4375 651.007219) scale(0.1 -0.1)">
       <use xlink:href="#DejaVuSans-30"/>
      </g>
     </g>
    </g>
    <g id="ytick_2">
     <g id="line2d_9">
      <g>
       <use xlink:href="#mbf7a7f1387" x="172.8" y="539.681692" style="stroke: #000000; stroke-width: 0.8"/>
      </g>
     </g>
     <g id="text_10">
      <!-- 10 -->
      <g transform="translate(153.075 543.480911) scale(0.1 -0.1)">
       <use xlink:href="#DejaVuSans-31"/>
       <use xlink:href="#DejaVuSans-30" transform="translate(63.623047 0)"/>
      </g>
     </g>
    </g>
    <g id="ytick_3">
     <g id="line2d_10">
      <g>
       <use xlink:href="#mbf7a7f1387" x="172.8" y="432.155384" style="stroke: #000000; stroke-width: 0.8"/>
      </g>
     </g>
     <g id="text_11">
      <!-- 20 -->
      <g transform="translate(153.075 435.954603) scale(0.1 -0.1)">
       <use xlink:href="#DejaVuSans-32"/>
       <use xlink:href="#DejaVuSans-30" transform="translate(63.623047 0)"/>
      </g>
     </g>
    </g>
    <g id="ytick_4">
     <g id="line2d_11">
      <g>
       <use xlink:href="#mbf7a7f1387" x="172.8" y="324.629076" style="stroke: #000000; stroke-width: 0.8"/>
      </g>
     </g>
     <g id="text_12">
      <!-- 30 -->
      <g transform="translate(153.075 328.428295) scale(0.1 -0.1)">
       <use xlink:href="#DejaVuSans-33"/>
       <use xlink:href="#DejaVuSans-30" transform="translate(63.623047 0)"/>
      </g>
     </g>
    </g>
    <g id="ytick_5">
     <g id="line2d_12">
      <g>
       <use xlink:href="#mbf7a7f1387" x="172.8" y="217.102768" style="stroke: #000000; stroke-width: 0.8"/>
      </g>
     </g>
     <g id="text_13">
      <!-- 40 -->
      <g transform="translate(153.075 220.901987) scale(0.1 -0.1)">
       <defs>
        <path id="DejaVuSans-34" d="M 2419 4116 
L 825 1625 
L 2419 1625 
L 2419 4116 
z
M 2253 4666 
L 3047 4666 
L 3047 1625 
L 3713 1625 
L 3713 1100 
L 3047 1100 
L 3047 0 
L 2419 0 
L 2419 1100 
L 313 1100 
L 313 1709 
L 2253 4666 
z
" transform="scale(0.015625)"/>
       </defs>
       <use xlink:href="#DejaVuSans-34"/>
       <use xlink:href="#DejaVuSans-30" transform="translate(63.623047 0)"/>
      </g>
     </g>
    </g>
    <g id="ytick_6">
     <g id="line2d_13">
      <g>
       <use xlink:href="#mbf7a7f1387" x="172.8" y="109.57646" style="stroke: #000000; stroke-width: 0.8"/>
      </g>
     </g>
     <g id="text_14">
      <!-- 50 -->
      <g transform="translate(153.075 113.375679) scale(0.1 -0.1)">
       <use xlink:href="#DejaVuSans-35"/>
       <use xlink:href="#DejaVuSans-30" transform="translate(63.623047 0)"/>
      </g>
     </g>
    </g>
    <g id="text_15">
     <!-- time to find (min) -->
     <g transform="translate(146.995312 411.140688) rotate(-90) scale(0.1 -0.1)">
      <defs>
       <path id="DejaVuSans-65" d="M 3597 1894 
L 3597 1613 
L 953 1613 
Q 991 1019 1311 708 
Q 1631 397 2203 397 
Q 2534 397 2845 478 
Q 3156 559 3463 722 
L 3463 178 
Q 3153 47 2828 -22 
Q 2503 -91 2169 -91 
Q 1331 -91 842 396 
Q 353 884 353 1716 
Q 353 2575 817 3079 
Q 1281 3584 2069 3584 
Q 2775 3584 3186 3129 
Q 3597 2675 3597 1894 
z
M 3022 2063 
Q 3016 2534 2758 2815 
Q 2500 3097 2075 3097 
Q 1594 3097 1305 2825 
Q 1016 2553 972 2059 
L 3022 2063 
z
" transform="scale(0.015625)"/>
       <path id="DejaVuSans-6f" d="M 1959 3097 
Q 1497 3097 1228 2736 
Q 959 2375 959 1747 
Q 959 1119 1226 758 
Q 1494 397 1959 397 
Q 2419 397 2687 759 
Q 2956 1122 2956 1747 
Q 2956 2369 2687 2733 
Q 2419 3097 1959 3097 
z
M 1959 3584 
Q 2709 3584 3137 3096 
Q 3566 2609 3566 1747 
Q 3566 888 3137 398 
Q 2709 -91 1959 -91 
Q 1206 -91 779 398 
Q 353 888 353 1747 
Q 353 2609 779 3096 
Q 1206 3584 1959 3584 
z
" transform="scale(0.015625)"/>
       <path id="DejaVuSans-66" d="M 2375 4863 
L 2375 4384 
L 1825 4384 
Q 1516 4384 1395 4259 
Q 1275 4134 1275 3809 
L 1275 3500 
L 2222 3500 
L 2222 3053 
L 1275 3053 
L 1275 0 
L 697 0 
L 697 3053 
L 147 3053 
L 147 3500 
L 697 3500 
L 697 3744 
Q 697 4328 969 4595 
Q 1241 4863 1831 4863 
L 2375 4863 
z
" transform="scale(0.015625)"/>
       <path id="DejaVuSans-28" d="M 1984 4856 
Q 1566 4138 1362 3434 
Q 1159 2731 1159 2009 
Q 1159 1288 1364 580 
Q 1569 -128 1984 -844 
L 1484 -844 
Q 1016 -109 783 600 
Q 550 1309 550 2009 
Q 550 2706 781 3412 
Q 1013 4119 1484 4856 
L 1984 4856 
z
" transform="scale(0.015625)"/>
       <path id="DejaVuSans-29" d="M 513 4856 
L 1013 4856 
Q 1481 4119 1714 3412 
Q 1947 2706 1947 2009 
Q 1947 1309 1714 600 
Q 1481 -109 1013 -844 
L 513 -844 
Q 928 -128 1133 580 
Q 1338 1288 1338 2009 
Q 1338 2731 1133 3434 
Q 928 4138 513 4856 
z
" transform="scale(0.015625)"/>
      </defs>
      <use xlink:href="#DejaVuSans-74"/>
      <use xlink:href="#DejaVuSans-69" transform="translate(39.208984 0)"/>
      <use xlink:href="#DejaVuSans-6d" transform="translate(66.992188 0)"/>
      <use xlink:href="#DejaVuSans-65" transform="translate(164.404297 0)"/>
      <use xlink:href="#DejaVuSans-20" transform="translate(225.927734 0)"/>
      <use xlink:href="#DejaVuSans-74" transform="translate(257.714844 0)"/>
      <use xlink:href="#DejaVuSans-6f" transform="translate(296.923828 0)"/>
      <use xlink:href="#DejaVuSans-20" transform="translate(358.105469 0)"/>
      <use xlink:href="#DejaVuSans-66" transform="translate(389.892578 0)"/>
      <use xlink:href="#DejaVuSans-69" transform="translate(425.097656 0)"/>
      <use xlink:href="#DejaVuSans-6e" transform="translate(452.880859 0)"/>
      <use xlink:href="#DejaVuSans-64" transform="translate(516.259766 0)"/>
      <use xlink:href="#DejaVuSans-20" transform="translate(579.736328 0)"/>
      <use xlink:href="#DejaVuSans-28" transform="translate(611.523438 0)"/>
      <use xlink:href="#DejaVuSans-6d" transform="translate(650.537109 0)"/>
      <use xlink:href="#DejaVuSans-69" transform="translate(747.949219 0)"/>
      <use xlink:href="#DejaVuSans-6e" transform="translate(775.732422 0)"/>
      <use xlink:href="#DejaVuSans-29" transform="translate(839.111328 0)"/>
     </g>
    </g>
   </g>
   <g id="line2d_14">
    <path d="M 253.309364 638.665358 
L 260.0777 637.375306 
L 263.461869 636.724372 
L 266.846037 637.094124 
L 270.230205 637.799752 
L 273.614374 637.611835 
L 276.998542 636.04035 
L 280.38271 634.813022 
L 283.766879 632.323896 
L 287.151047 629.117528 
L 290.535215 627.213993 
L 293.919383 623.448533 
L 297.303552 618.797188 
L 300.68772 618.807219 
L 304.071888 616.872866 
L 307.456057 615.227797 
L 310.840225 615.59575 
L 314.224393 615.223403 
L 317.608562 615.563143 
L 320.99273 617.134398 
L 324.376898 618.242759 
L 331.145235 624.016283 
L 334.529403 623.190711 
L 337.913571 622.497862 
L 341.29774 619.929433 
L 344.681908 618.832826 
L 348.066076 619.40193 
L 351.450244 620.406615 
L 354.834413 617.899159 
L 358.218581 614.808823 
L 361.602749 608.803513 
L 364.986918 607.969238 
L 368.371086 604.248187 
L 371.755254 604.251301 
L 375.139423 607.382605 
L 378.523591 603.490527 
L 381.907759 602.364882 
L 388.676096 600.895366 
L 392.060264 603.290256 
L 395.444432 608.870468 
L 398.828601 608.404168 
L 402.212769 608.574482 
L 405.596937 605.514966 
L 408.981106 603.665833 
L 412.365274 603.093949 
L 419.13361 600.271014 
L 422.517779 599.852128 
L 425.901947 595.947622 
L 429.286115 590.615368 
L 432.670284 582.452605 
L 436.054452 584.928291 
L 439.43862 585.091439 
L 442.822789 582.800831 
L 446.206957 579.899125 
L 449.591125 582.198195 
L 452.975293 581.965802 
L 456.359462 585.051332 
L 459.74363 586.26965 
L 463.127798 589.530473 
L 466.511967 600.361587 
L 469.896135 596.862816 
L 473.280303 596.151118 
L 476.664472 595.19255 
L 480.04864 599.539844 
L 483.432808 597.420979 
L 486.816976 598.450893 
L 490.201145 589.290527 
L 493.585313 591.04622 
L 496.969481 587.422011 
L 500.35365 581.110235 
L 503.737818 583.96931 
L 507.121986 587.928915 
L 510.506155 593.521486 
L 513.890323 595.148921 
L 517.274491 596.402357 
L 520.658659 595.761594 
L 524.042828 600.157748 
L 527.426996 600.887547 
L 530.811164 601.241773 
L 534.195333 604.890696 
L 537.579501 599.640208 
L 540.963669 597.356174 
L 544.347838 594.611804 
L 547.732006 595.051635 
L 551.116174 589.016052 
L 554.500342 588.432623 
L 557.884511 592.958087 
L 561.268679 590.550253 
L 564.652847 585.725131 
L 568.037016 584.672253 
L 571.421184 587.335588 
L 574.805352 584.686963 
L 578.189521 577.565546 
L 581.573689 571.069049 
L 584.957857 567.38111 
L 588.342025 564.303184 
L 591.726194 559.715416 
L 595.110362 554.612085 
L 598.49453 555.426609 
L 601.878699 551.793143 
L 605.262867 545.651535 
L 608.647035 541.215913 
L 612.031203 538.288178 
L 615.415372 538.676911 
L 618.79954 541.71494 
L 622.183708 531.361355 
L 625.567877 526.050764 
L 632.336213 522.622384 
L 635.720382 527.511329 
L 639.10455 526.710397 
L 642.488718 534.677261 
L 645.872886 545.252698 
L 649.257055 534.706033 
L 652.641223 537.675262 
L 656.025391 543.49099 
L 659.40956 543.047494 
L 662.793728 538.413228 
L 666.177896 531.750533 
L 669.562065 526.850782 
L 672.946233 533.231409 
L 676.330401 533.105313 
L 679.714569 531.356482 
L 683.098738 548.406101 
L 686.482906 552.44766 
L 693.251243 573.605784 
L 696.635411 588.319939 
L 700.019579 605.501789 
L 703.403748 611.412439 
L 706.787916 606.133234 
L 710.172084 606.899816 
L 713.556252 609.090333 
L 716.940421 605.977461 
L 720.324589 602.518839 
L 723.708757 601.560198 
L 727.092926 598.415251 
L 730.477094 597.956345 
L 733.861262 597.246664 
L 737.245431 592.066072 
L 740.629599 600.984681 
L 744.013767 597.802065 
L 747.397935 591.158415 
L 750.782104 592.528728 
L 754.166272 594.162941 
L 757.55044 590.066316 
L 760.934609 589.685955 
L 764.318777 588.252374 
L 767.702945 579.677549 
L 771.087114 579.039179 
L 774.471282 573.59314 
L 777.85545 571.482416 
L 781.239618 574.060414 
L 784.623787 569.468123 
L 788.007955 568.642137 
L 791.392123 563.350489 
L 794.776292 564.480286 
L 798.16046 564.14433 
L 801.544628 571.89788 
L 804.928797 575.440089 
L 808.312965 575.828971 
L 811.697133 576.104599 
L 815.081301 565.219687 
L 818.46547 571.339175 
L 821.849638 569.255165 
L 825.233806 575.105529 
L 828.617975 575.091602 
L 832.002143 569.122845 
L 835.386311 565.588583 
L 838.770479 565.957592 
L 842.154648 566.553944 
L 845.538816 569.917577 
L 848.922984 583.514829 
L 852.307153 579.299253 
L 855.691321 581.528482 
L 859.075489 584.874512 
L 862.459658 574.542106 
L 865.843826 581.374527 
L 869.227994 584.378233 
L 872.612162 581.213422 
L 875.996331 580.592584 
L 879.380499 582.499408 
L 882.764667 578.822581 
L 886.148836 580.64933 
L 889.533004 570.248227 
L 892.917172 563.423592 
L 896.301341 569.12296 
L 899.685509 567.723325 
L 903.069677 558.290019 
L 906.453845 547.624981 
L 909.838014 537.881451 
L 913.222182 530.331962 
L 916.60635 532.406394 
L 919.990519 532.93847 
L 923.374687 535.203164 
L 926.758855 517.576817 
L 930.143024 508.443316 
L 933.527192 504.056161 
L 936.91136 479.141861 
L 940.295528 465.818221 
L 943.679697 466.885375 
L 947.063865 450.716891 
L 950.448033 439.021078 
L 953.832202 436.598856 
L 960.600538 447.579235 
L 963.984707 455.110632 
L 967.368875 443.870436 
L 970.753043 465.901227 
L 974.137211 489.855379 
L 977.52138 492.52287 
L 980.905548 507.858476 
L 984.289716 516.101418 
L 987.673885 513.575765 
L 991.058053 513.230111 
L 994.442221 524.772554 
L 997.82639 514.246431 
L 1001.210558 515.756705 
L 1004.594726 518.283411 
L 1007.978894 505.616371 
L 1011.363063 509.7752 
L 1014.747231 512.035417 
L 1018.131399 507.170543 
L 1021.515568 504.35337 
L 1024.899736 504.625425 
L 1028.283904 507.393202 
L 1031.668073 509.475446 
L 1035.052241 519.799609 
L 1038.436409 529.665205 
L 1041.820577 548.513342 
L 1045.204746 552.906168 
L 1048.588914 560.066582 
L 1051.973082 557.65625 
L 1055.357251 561.457465 
L 1058.741419 557.774505 
L 1062.125587 555.448818 
L 1065.509756 559.820675 
L 1068.893924 554.220668 
L 1072.278092 548.915771 
L 1075.66226 538.557786 
L 1079.046429 523.153483 
L 1082.430597 512.405829 
L 1085.814765 521.75692 
L 1089.198934 528.428779 
L 1092.583102 526.878075 
L 1095.96727 522.550386 
L 1099.351438 526.813733 
L 1102.735607 527.197494 
L 1106.119775 512.463825 
L 1109.503943 500.324631 
L 1112.888112 467.999283 
L 1116.27228 459.74317 
L 1119.656448 450.213423 
L 1123.040617 426.611356 
L 1126.424785 425.127232 
L 1129.808953 396.609441 
L 1133.193121 390.400004 
L 1136.57729 371.197761 
L 1139.961458 381.831204 
L 1143.345626 394.612362 
L 1146.729795 409.375071 
L 1150.113963 423.108774 
L 1153.498131 430.341365 
L 1156.8823 447.660866 
L 1160.266468 426.851934 
L 1163.650636 452.235412 
L 1167.034804 432.432066 
L 1170.418973 458.118326 
L 1173.803141 437.488977 
L 1177.187309 441.820896 
L 1180.571478 464.444925 
L 1183.955646 447.370511 
L 1187.339814 414.714107 
L 1190.723983 414.991907 
L 1194.108151 447.266796 
L 1194.108151 447.266796 
" clip-path="url(#pd3e0a0cb70)" style="fill: none; stroke: #ffa500; stroke-width: 1.5; stroke-linecap: square"/>
   </g>
   <g id="patch_291">
    <path d="M 172.8 647.208 
L 172.8 87.264 
" style="fill: none; stroke: #000000; stroke-width: 0.8; stroke-linejoin: miter; stroke-linecap: square"/>
   </g>
   <g id="patch_292">
    <path d="M 1244.16 647.208 
L 1244.16 87.264 
" style="fill: none; stroke: #000000; stroke-width: 0.8; stroke-linejoin: miter; stroke-linecap: square"/>
   </g>
   <g id="patch_293">
    <path d="M 172.8 647.208 
L 1244.16 647.208 
" style="fill: none; stroke: #000000; stroke-width: 0.8; stroke-linejoin: miter; stroke-linecap: square"/>
   </g>
   <g id="patch_294">
    <path d="M 172.8 87.264 
L 1244.16 87.264 
" style="fill: none; stroke: #000000; stroke-width: 0.8; stroke-linejoin: miter; stroke-linecap: square"/>
   </g>
  </g>
 </g>
 <defs>
  <clipPath id="pd3e0a0cb70">
   <rect x="172.8" y="87.264" width="1071.36" height="559.944"/>
  </clipPath>
 </defs>
</svg>
