<?xml version="1.0" encoding="utf-8" standalone="no"?>
<!DOCTYPE svg PUBLIC "-//W3C//DTD SVG 1.1//EN"
  "http://www.w3.org/Graphics/SVG/1.1/DTD/svg11.dtd">
<svg xmlns:xlink="http://www.w3.org/1999/xlink" width="1382.4pt" height="727.2pt" viewBox="0 0 1382.4 727.2" xmlns="http://www.w3.org/2000/svg" version="1.1">
 <metadata>
  <rdf:RDF xmlns:dc="http://purl.org/dc/elements/1.1/" xmlns:cc="http://creativecommons.org/ns#" xmlns:rdf="http://www.w3.org/1999/02/22-rdf-syntax-ns#">
   <cc:Work>
    <dc:type rdf:resource="http://purl.org/dc/dcmitype/StillImage"/>
    <dc:date>2025-02-07T17:38:08.144396</dc:date>
    <dc:format>image/svg+xml</dc:format>
    <dc:creator>
     <cc:Agent>
      <dc:title>Matplotlib v3.10.0, https://matplotlib.org/</dc:title>
     </cc:Agent>
    </dc:creator>
   </cc:Work>
  </rdf:RDF>
 </metadata>
 <defs>
  <style type="text/css">*{stroke-linejoin: round; stroke-linecap: butt}</style>
 </defs>
 <g id="figure_1">
  <g id="patch_1">
   <path d="M 0 727.2 
L 1382.4 727.2 
L 1382.4 0 
L 0 0 
z
" style="fill: #ffffff"/>
  </g>
  <g id="axes_1">
   <g id="patch_2">
    <path d="M 172.8 647.208 
L 1244.16 647.208 
L 1244.16 87.264 
L 172.8 87.264 
z
" style="fill: #ffffff"/>
   </g>
   <g id="matplotlib.axis_1">
    <g id="xtick_1">
     <g id="line2d_1">
      <defs>
       <path id="ma578ff00a7" d="M 0 0 
L 0 3.5 
" style="stroke: #000000; stroke-width: 0.8"/>
      </defs>
      <g>
       <use xlink:href="#ma578ff00a7" x="221.498182" y="647.208" style="stroke: #000000; stroke-width: 0.8"/>
      </g>
     </g>
     <g id="text_1">
      <!-- 0 -->
      <g transform="translate(218.316932 661.806437) scale(0.1 -0.1)">
       <defs>
        <path id="DejaVuSans-30" d="M 2034 4250 
Q 1547 4250 1301 3770 
Q 1056 3291 1056 2328 
Q 1056 1369 1301 889 
Q 1547 409 2034 409 
Q 2525 409 2770 889 
Q 3016 1369 3016 2328 
Q 3016 3291 2770 3770 
Q 2525 4250 2034 4250 
z
M 2034 4750 
Q 2819 4750 3233 4129 
Q 3647 3509 3647 2328 
Q 3647 1150 3233 529 
Q 2819 -91 2034 -91 
Q 1250 -91 836 529 
Q 422 1150 422 2328 
Q 422 3509 836 4129 
Q 1250 4750 2034 4750 
z
" transform="scale(0.015625)"/>
       </defs>
       <use xlink:href="#DejaVuSans-30"/>
      </g>
     </g>
    </g>
    <g id="xtick_2">
     <g id="line2d_2">
      <g>
       <use xlink:href="#ma578ff00a7" x="420.954449" y="647.208" style="stroke: #000000; stroke-width: 0.8"/>
      </g>
     </g>
     <g id="text_2">
      <!-- 500 -->
      <g transform="translate(411.410699 661.806437) scale(0.1 -0.1)">
       <defs>
        <path id="DejaVuSans-35" d="M 691 4666 
L 3169 4666 
L 3169 4134 
L 1269 4134 
L 1269 2991 
Q 1406 3038 1543 3061 
Q 1681 3084 1819 3084 
Q 2600 3084 3056 2656 
Q 3513 2228 3513 1497 
Q 3513 744 3044 326 
Q 2575 -91 1722 -91 
Q 1428 -91 1123 -41 
Q 819 9 494 109 
L 494 744 
Q 775 591 1075 516 
Q 1375 441 1709 441 
Q 2250 441 2565 725 
Q 2881 1009 2881 1497 
Q 2881 1984 2565 2268 
Q 2250 2553 1709 2553 
Q 1456 2553 1204 2497 
Q 953 2441 691 2322 
L 691 4666 
z
" transform="scale(0.015625)"/>
       </defs>
       <use xlink:href="#DejaVuSans-35"/>
       <use xlink:href="#DejaVuSans-30" transform="translate(63.623047 0)"/>
       <use xlink:href="#DejaVuSans-30" transform="translate(127.246094 0)"/>
      </g>
     </g>
    </g>
    <g id="xtick_3">
     <g id="line2d_3">
      <g>
       <use xlink:href="#ma578ff00a7" x="620.410716" y="647.208" style="stroke: #000000; stroke-width: 0.8"/>
      </g>
     </g>
     <g id="text_3">
      <!-- 1000 -->
      <g transform="translate(607.685716 661.806437) scale(0.1 -0.1)">
       <defs>
        <path id="DejaVuSans-31" d="M 794 531 
L 1825 531 
L 1825 4091 
L 703 3866 
L 703 4441 
L 1819 4666 
L 2450 4666 
L 2450 531 
L 3481 531 
L 3481 0 
L 794 0 
L 794 531 
z
" transform="scale(0.015625)"/>
       </defs>
       <use xlink:href="#DejaVuSans-31"/>
       <use xlink:href="#DejaVuSans-30" transform="translate(63.623047 0)"/>
       <use xlink:href="#DejaVuSans-30" transform="translate(127.246094 0)"/>
       <use xlink:href="#DejaVuSans-30" transform="translate(190.869141 0)"/>
      </g>
     </g>
    </g>
    <g id="xtick_4">
     <g id="line2d_4">
      <g>
       <use xlink:href="#ma578ff00a7" x="819.866983" y="647.208" style="stroke: #000000; stroke-width: 0.8"/>
      </g>
     </g>
     <g id="text_4">
      <!-- 1500 -->
      <g transform="translate(807.141983 661.806437) scale(0.1 -0.1)">
       <use xlink:href="#DejaVuSans-31"/>
       <use xlink:href="#DejaVuSans-35" transform="translate(63.623047 0)"/>
       <use xlink:href="#DejaVuSans-30" transform="translate(127.246094 0)"/>
       <use xlink:href="#DejaVuSans-30" transform="translate(190.869141 0)"/>
      </g>
     </g>
    </g>
    <g id="xtick_5">
     <g id="line2d_5">
      <g>
       <use xlink:href="#ma578ff00a7" x="1019.32325" y="647.208" style="stroke: #000000; stroke-width: 0.8"/>
      </g>
     </g>
     <g id="text_5">
      <!-- 2000 -->
      <g transform="translate(1006.59825 661.806437) scale(0.1 -0.1)">
       <defs>
        <path id="DejaVuSans-32" d="M 1228 531 
L 3431 531 
L 3431 0 
L 469 0 
L 469 531 
Q 828 903 1448 1529 
Q 2069 2156 2228 2338 
Q 2531 2678 2651 2914 
Q 2772 3150 2772 3378 
Q 2772 3750 2511 3984 
Q 2250 4219 1831 4219 
Q 1534 4219 1204 4116 
Q 875 4013 500 3803 
L 500 4441 
Q 881 4594 1212 4672 
Q 1544 4750 1819 4750 
Q 2544 4750 2975 4387 
Q 3406 4025 3406 3419 
Q 3406 3131 3298 2873 
Q 3191 2616 2906 2266 
Q 2828 2175 2409 1742 
Q 1991 1309 1228 531 
z
" transform="scale(0.015625)"/>
       </defs>
       <use xlink:href="#DejaVuSans-32"/>
       <use xlink:href="#DejaVuSans-30" transform="translate(63.623047 0)"/>
       <use xlink:href="#DejaVuSans-30" transform="translate(127.246094 0)"/>
       <use xlink:href="#DejaVuSans-30" transform="translate(190.869141 0)"/>
      </g>
     </g>
    </g>
    <g id="xtick_6">
     <g id="line2d_6">
      <g>
       <use xlink:href="#ma578ff00a7" x="1218.779517" y="647.208" style="stroke: #000000; stroke-width: 0.8"/>
      </g>
     </g>
     <g id="text_6">
      <!-- 2500 -->
      <g transform="translate(1206.054517 661.806437) scale(0.1 -0.1)">
       <use xlink:href="#DejaVuSans-32"/>
       <use xlink:href="#DejaVuSans-35" transform="translate(63.623047 0)"/>
       <use xlink:href="#DejaVuSans-30" transform="translate(127.246094 0)"/>
       <use xlink:href="#DejaVuSans-30" transform="translate(190.869141 0)"/>
      </g>
     </g>
    </g>
    <g id="text_7">
     <!-- fuzz time (mins) -->
     <g transform="translate(667.894062 675.484562) scale(0.1 -0.1)">
      <defs>
       <path id="DejaVuSans-66" d="M 2375 4863 
L 2375 4384 
L 1825 4384 
Q 1516 4384 1395 4259 
Q 1275 4134 1275 3809 
L 1275 3500 
L 2222 3500 
L 2222 3053 
L 1275 3053 
L 1275 0 
L 697 0 
L 697 3053 
L 147 3053 
L 147 3500 
L 697 3500 
L 697 3744 
Q 697 4328 969 4595 
Q 1241 4863 1831 4863 
L 2375 4863 
z
" transform="scale(0.015625)"/>
       <path id="DejaVuSans-75" d="M 544 1381 
L 544 3500 
L 1119 3500 
L 1119 1403 
Q 1119 906 1312 657 
Q 1506 409 1894 409 
Q 2359 409 2629 706 
Q 2900 1003 2900 1516 
L 2900 3500 
L 3475 3500 
L 3475 0 
L 2900 0 
L 2900 538 
Q 2691 219 2414 64 
Q 2138 -91 1772 -91 
Q 1169 -91 856 284 
Q 544 659 544 1381 
z
M 1991 3584 
L 1991 3584 
z
" transform="scale(0.015625)"/>
       <path id="DejaVuSans-7a" d="M 353 3500 
L 3084 3500 
L 3084 2975 
L 922 459 
L 3084 459 
L 3084 0 
L 275 0 
L 275 525 
L 2438 3041 
L 353 3041 
L 353 3500 
z
" transform="scale(0.015625)"/>
       <path id="DejaVuSans-20" transform="scale(0.015625)"/>
       <path id="DejaVuSans-74" d="M 1172 4494 
L 1172 3500 
L 2356 3500 
L 2356 3053 
L 1172 3053 
L 1172 1153 
Q 1172 725 1289 603 
Q 1406 481 1766 481 
L 2356 481 
L 2356 0 
L 1766 0 
Q 1100 0 847 248 
Q 594 497 594 1153 
L 594 3053 
L 172 3053 
L 172 3500 
L 594 3500 
L 594 4494 
L 1172 4494 
z
" transform="scale(0.015625)"/>
       <path id="DejaVuSans-69" d="M 603 3500 
L 1178 3500 
L 1178 0 
L 603 0 
L 603 3500 
z
M 603 4863 
L 1178 4863 
L 1178 4134 
L 603 4134 
L 603 4863 
z
" transform="scale(0.015625)"/>
       <path id="DejaVuSans-6d" d="M 3328 2828 
Q 3544 3216 3844 3400 
Q 4144 3584 4550 3584 
Q 5097 3584 5394 3201 
Q 5691 2819 5691 2113 
L 5691 0 
L 5113 0 
L 5113 2094 
Q 5113 2597 4934 2840 
Q 4756 3084 4391 3084 
Q 3944 3084 3684 2787 
Q 3425 2491 3425 1978 
L 3425 0 
L 2847 0 
L 2847 2094 
Q 2847 2600 2669 2842 
Q 2491 3084 2119 3084 
Q 1678 3084 1418 2786 
Q 1159 2488 1159 1978 
L 1159 0 
L 581 0 
L 581 3500 
L 1159 3500 
L 1159 2956 
Q 1356 3278 1631 3431 
Q 1906 3584 2284 3584 
Q 2666 3584 2933 3390 
Q 3200 3197 3328 2828 
z
" transform="scale(0.015625)"/>
       <path id="DejaVuSans-65" d="M 3597 1894 
L 3597 1613 
L 953 1613 
Q 991 1019 1311 708 
Q 1631 397 2203 397 
Q 2534 397 2845 478 
Q 3156 559 3463 722 
L 3463 178 
Q 3153 47 2828 -22 
Q 2503 -91 2169 -91 
Q 1331 -91 842 396 
Q 353 884 353 1716 
Q 353 2575 817 3079 
Q 1281 3584 2069 3584 
Q 2775 3584 3186 3129 
Q 3597 2675 3597 1894 
z
M 3022 2063 
Q 3016 2534 2758 2815 
Q 2500 3097 2075 3097 
Q 1594 3097 1305 2825 
Q 1016 2553 972 2059 
L 3022 2063 
z
" transform="scale(0.015625)"/>
       <path id="DejaVuSans-28" d="M 1984 4856 
Q 1566 4138 1362 3434 
Q 1159 2731 1159 2009 
Q 1159 1288 1364 580 
Q 1569 -128 1984 -844 
L 1484 -844 
Q 1016 -109 783 600 
Q 550 1309 550 2009 
Q 550 2706 781 3412 
Q 1013 4119 1484 4856 
L 1984 4856 
z
" transform="scale(0.015625)"/>
       <path id="DejaVuSans-6e" d="M 3513 2113 
L 3513 0 
L 2938 0 
L 2938 2094 
Q 2938 2591 2744 2837 
Q 2550 3084 2163 3084 
Q 1697 3084 1428 2787 
Q 1159 2491 1159 1978 
L 1159 0 
L 581 0 
L 581 3500 
L 1159 3500 
L 1159 2956 
Q 1366 3272 1645 3428 
Q 1925 3584 2291 3584 
Q 2894 3584 3203 3211 
Q 3513 2838 3513 2113 
z
" transform="scale(0.015625)"/>
       <path id="DejaVuSans-73" d="M 2834 3397 
L 2834 2853 
Q 2591 2978 2328 3040 
Q 2066 3103 1784 3103 
Q 1356 3103 1142 2972 
Q 928 2841 928 2578 
Q 928 2378 1081 2264 
Q 1234 2150 1697 2047 
L 1894 2003 
Q 2506 1872 2764 1633 
Q 3022 1394 3022 966 
Q 3022 478 2636 193 
Q 2250 -91 1575 -91 
Q 1294 -91 989 -36 
Q 684 19 347 128 
L 347 722 
Q 666 556 975 473 
Q 1284 391 1588 391 
Q 1994 391 2212 530 
Q 2431 669 2431 922 
Q 2431 1156 2273 1281 
Q 2116 1406 1581 1522 
L 1381 1569 
Q 847 1681 609 1914 
Q 372 2147 372 2553 
Q 372 3047 722 3315 
Q 1072 3584 1716 3584 
Q 2034 3584 2315 3537 
Q 2597 3491 2834 3397 
z
" transform="scale(0.015625)"/>
       <path id="DejaVuSans-29" d="M 513 4856 
L 1013 4856 
Q 1481 4119 1714 3412 
Q 1947 2706 1947 2009 
Q 1947 1309 1714 600 
Q 1481 -109 1013 -844 
L 513 -844 
Q 928 -128 1133 580 
Q 1338 1288 1338 2009 
Q 1338 2731 1133 3434 
Q 928 4138 513 4856 
z
" transform="scale(0.015625)"/>
      </defs>
      <use xlink:href="#DejaVuSans-66"/>
      <use xlink:href="#DejaVuSans-75" transform="translate(35.205078 0)"/>
      <use xlink:href="#DejaVuSans-7a" transform="translate(98.583984 0)"/>
      <use xlink:href="#DejaVuSans-7a" transform="translate(151.074219 0)"/>
      <use xlink:href="#DejaVuSans-20" transform="translate(203.564453 0)"/>
      <use xlink:href="#DejaVuSans-74" transform="translate(235.351562 0)"/>
      <use xlink:href="#DejaVuSans-69" transform="translate(274.560547 0)"/>
      <use xlink:href="#DejaVuSans-6d" transform="translate(302.34375 0)"/>
      <use xlink:href="#DejaVuSans-65" transform="translate(399.755859 0)"/>
      <use xlink:href="#DejaVuSans-20" transform="translate(461.279297 0)"/>
      <use xlink:href="#DejaVuSans-28" transform="translate(493.066406 0)"/>
      <use xlink:href="#DejaVuSans-6d" transform="translate(532.080078 0)"/>
      <use xlink:href="#DejaVuSans-69" transform="translate(629.492188 0)"/>
      <use xlink:href="#DejaVuSans-6e" transform="translate(657.275391 0)"/>
      <use xlink:href="#DejaVuSans-73" transform="translate(720.654297 0)"/>
      <use xlink:href="#DejaVuSans-29" transform="translate(772.753906 0)"/>
     </g>
    </g>
   </g>
   <g id="matplotlib.axis_2">
    <g id="ytick_1">
     <g id="line2d_7">
      <defs>
       <path id="mdb83091dc0" d="M 0 0 
L -3.5 0 
" style="stroke: #000000; stroke-width: 0.8"/>
      </defs>
      <g>
       <use xlink:href="#mdb83091dc0" x="172.8" y="634.777953" style="stroke: #000000; stroke-width: 0.8"/>
      </g>
     </g>
     <g id="text_8">
      <!-- 9000 -->
      <g transform="translate(140.35 638.577172) scale(0.1 -0.1)">
       <defs>
        <path id="DejaVuSans-39" d="M 703 97 
L 703 672 
Q 941 559 1184 500 
Q 1428 441 1663 441 
Q 2288 441 2617 861 
Q 2947 1281 2994 2138 
Q 2813 1869 2534 1725 
Q 2256 1581 1919 1581 
Q 1219 1581 811 2004 
Q 403 2428 403 3163 
Q 403 3881 828 4315 
Q 1253 4750 1959 4750 
Q 2769 4750 3195 4129 
Q 3622 3509 3622 2328 
Q 3622 1225 3098 567 
Q 2575 -91 1691 -91 
Q 1453 -91 1209 -44 
Q 966 3 703 97 
z
M 1959 2075 
Q 2384 2075 2632 2365 
Q 2881 2656 2881 3163 
Q 2881 3666 2632 3958 
Q 2384 4250 1959 4250 
Q 1534 4250 1286 3958 
Q 1038 3666 1038 3163 
Q 1038 2656 1286 2365 
Q 1534 2075 1959 2075 
z
" transform="scale(0.015625)"/>
       </defs>
       <use xlink:href="#DejaVuSans-39"/>
       <use xlink:href="#DejaVuSans-30" transform="translate(63.623047 0)"/>
       <use xlink:href="#DejaVuSans-30" transform="translate(127.246094 0)"/>
       <use xlink:href="#DejaVuSans-30" transform="translate(190.869141 0)"/>
      </g>
     </g>
    </g>
    <g id="ytick_2">
     <g id="line2d_8">
      <g>
       <use xlink:href="#mdb83091dc0" x="172.8" y="516.396558" style="stroke: #000000; stroke-width: 0.8"/>
      </g>
     </g>
     <g id="text_9">
      <!-- 9200 -->
      <g transform="translate(140.35 520.195777) scale(0.1 -0.1)">
       <use xlink:href="#DejaVuSans-39"/>
       <use xlink:href="#DejaVuSans-32" transform="translate(63.623047 0)"/>
       <use xlink:href="#DejaVuSans-30" transform="translate(127.246094 0)"/>
       <use xlink:href="#DejaVuSans-30" transform="translate(190.869141 0)"/>
      </g>
     </g>
    </g>
    <g id="ytick_3">
     <g id="line2d_9">
      <g>
       <use xlink:href="#mdb83091dc0" x="172.8" y="398.015163" style="stroke: #000000; stroke-width: 0.8"/>
      </g>
     </g>
     <g id="text_10">
      <!-- 9400 -->
      <g transform="translate(140.35 401.814382) scale(0.1 -0.1)">
       <defs>
        <path id="DejaVuSans-34" d="M 2419 4116 
L 825 1625 
L 2419 1625 
L 2419 4116 
z
M 2253 4666 
L 3047 4666 
L 3047 1625 
L 3713 1625 
L 3713 1100 
L 3047 1100 
L 3047 0 
L 2419 0 
L 2419 1100 
L 313 1100 
L 313 1709 
L 2253 4666 
z
" transform="scale(0.015625)"/>
       </defs>
       <use xlink:href="#DejaVuSans-39"/>
       <use xlink:href="#DejaVuSans-34" transform="translate(63.623047 0)"/>
       <use xlink:href="#DejaVuSans-30" transform="translate(127.246094 0)"/>
       <use xlink:href="#DejaVuSans-30" transform="translate(190.869141 0)"/>
      </g>
     </g>
    </g>
    <g id="ytick_4">
     <g id="line2d_10">
      <g>
       <use xlink:href="#mdb83091dc0" x="172.8" y="279.633767" style="stroke: #000000; stroke-width: 0.8"/>
      </g>
     </g>
     <g id="text_11">
      <!-- 9600 -->
      <g transform="translate(140.35 283.432986) scale(0.1 -0.1)">
       <defs>
        <path id="DejaVuSans-36" d="M 2113 2584 
Q 1688 2584 1439 2293 
Q 1191 2003 1191 1497 
Q 1191 994 1439 701 
Q 1688 409 2113 409 
Q 2538 409 2786 701 
Q 3034 994 3034 1497 
Q 3034 2003 2786 2293 
Q 2538 2584 2113 2584 
z
M 3366 4563 
L 3366 3988 
Q 3128 4100 2886 4159 
Q 2644 4219 2406 4219 
Q 1781 4219 1451 3797 
Q 1122 3375 1075 2522 
Q 1259 2794 1537 2939 
Q 1816 3084 2150 3084 
Q 2853 3084 3261 2657 
Q 3669 2231 3669 1497 
Q 3669 778 3244 343 
Q 2819 -91 2113 -91 
Q 1303 -91 875 529 
Q 447 1150 447 2328 
Q 447 3434 972 4092 
Q 1497 4750 2381 4750 
Q 2619 4750 2861 4703 
Q 3103 4656 3366 4563 
z
" transform="scale(0.015625)"/>
       </defs>
       <use xlink:href="#DejaVuSans-39"/>
       <use xlink:href="#DejaVuSans-36" transform="translate(63.623047 0)"/>
       <use xlink:href="#DejaVuSans-30" transform="translate(127.246094 0)"/>
       <use xlink:href="#DejaVuSans-30" transform="translate(190.869141 0)"/>
      </g>
     </g>
    </g>
    <g id="ytick_5">
     <g id="line2d_11">
      <g>
       <use xlink:href="#mdb83091dc0" x="172.8" y="161.252372" style="stroke: #000000; stroke-width: 0.8"/>
      </g>
     </g>
     <g id="text_12">
      <!-- 9800 -->
      <g transform="translate(140.35 165.051591) scale(0.1 -0.1)">
       <defs>
        <path id="DejaVuSans-38" d="M 2034 2216 
Q 1584 2216 1326 1975 
Q 1069 1734 1069 1313 
Q 1069 891 1326 650 
Q 1584 409 2034 409 
Q 2484 409 2743 651 
Q 3003 894 3003 1313 
Q 3003 1734 2745 1975 
Q 2488 2216 2034 2216 
z
M 1403 2484 
Q 997 2584 770 2862 
Q 544 3141 544 3541 
Q 544 4100 942 4425 
Q 1341 4750 2034 4750 
Q 2731 4750 3128 4425 
Q 3525 4100 3525 3541 
Q 3525 3141 3298 2862 
Q 3072 2584 2669 2484 
Q 3125 2378 3379 2068 
Q 3634 1759 3634 1313 
Q 3634 634 3220 271 
Q 2806 -91 2034 -91 
Q 1263 -91 848 271 
Q 434 634 434 1313 
Q 434 1759 690 2068 
Q 947 2378 1403 2484 
z
M 1172 3481 
Q 1172 3119 1398 2916 
Q 1625 2713 2034 2713 
Q 2441 2713 2670 2916 
Q 2900 3119 2900 3481 
Q 2900 3844 2670 4047 
Q 2441 4250 2034 4250 
Q 1625 4250 1398 4047 
Q 1172 3844 1172 3481 
z
" transform="scale(0.015625)"/>
       </defs>
       <use xlink:href="#DejaVuSans-39"/>
       <use xlink:href="#DejaVuSans-38" transform="translate(63.623047 0)"/>
       <use xlink:href="#DejaVuSans-30" transform="translate(127.246094 0)"/>
       <use xlink:href="#DejaVuSans-30" transform="translate(190.869141 0)"/>
      </g>
     </g>
    </g>
    <g id="text_13">
     <!-- compressed size (bytes) -->
     <g transform="translate(134.270312 428.118031) rotate(-90) scale(0.1 -0.1)">
      <defs>
       <path id="DejaVuSans-63" d="M 3122 3366 
L 3122 2828 
Q 2878 2963 2633 3030 
Q 2388 3097 2138 3097 
Q 1578 3097 1268 2742 
Q 959 2388 959 1747 
Q 959 1106 1268 751 
Q 1578 397 2138 397 
Q 2388 397 2633 464 
Q 2878 531 3122 666 
L 3122 134 
Q 2881 22 2623 -34 
Q 2366 -91 2075 -91 
Q 1284 -91 818 406 
Q 353 903 353 1747 
Q 353 2603 823 3093 
Q 1294 3584 2113 3584 
Q 2378 3584 2631 3529 
Q 2884 3475 3122 3366 
z
" transform="scale(0.015625)"/>
       <path id="DejaVuSans-6f" d="M 1959 3097 
Q 1497 3097 1228 2736 
Q 959 2375 959 1747 
Q 959 1119 1226 758 
Q 1494 397 1959 397 
Q 2419 397 2687 759 
Q 2956 1122 2956 1747 
Q 2956 2369 2687 2733 
Q 2419 3097 1959 3097 
z
M 1959 3584 
Q 2709 3584 3137 3096 
Q 3566 2609 3566 1747 
Q 3566 888 3137 398 
Q 2709 -91 1959 -91 
Q 1206 -91 779 398 
Q 353 888 353 1747 
Q 353 2609 779 3096 
Q 1206 3584 1959 3584 
z
" transform="scale(0.015625)"/>
       <path id="DejaVuSans-70" d="M 1159 525 
L 1159 -1331 
L 581 -1331 
L 581 3500 
L 1159 3500 
L 1159 2969 
Q 1341 3281 1617 3432 
Q 1894 3584 2278 3584 
Q 2916 3584 3314 3078 
Q 3713 2572 3713 1747 
Q 3713 922 3314 415 
Q 2916 -91 2278 -91 
Q 1894 -91 1617 61 
Q 1341 213 1159 525 
z
M 3116 1747 
Q 3116 2381 2855 2742 
Q 2594 3103 2138 3103 
Q 1681 3103 1420 2742 
Q 1159 2381 1159 1747 
Q 1159 1113 1420 752 
Q 1681 391 2138 391 
Q 2594 391 2855 752 
Q 3116 1113 3116 1747 
z
" transform="scale(0.015625)"/>
       <path id="DejaVuSans-72" d="M 2631 2963 
Q 2534 3019 2420 3045 
Q 2306 3072 2169 3072 
Q 1681 3072 1420 2755 
Q 1159 2438 1159 1844 
L 1159 0 
L 581 0 
L 581 3500 
L 1159 3500 
L 1159 2956 
Q 1341 3275 1631 3429 
Q 1922 3584 2338 3584 
Q 2397 3584 2469 3576 
Q 2541 3569 2628 3553 
L 2631 2963 
z
" transform="scale(0.015625)"/>
       <path id="DejaVuSans-64" d="M 2906 2969 
L 2906 4863 
L 3481 4863 
L 3481 0 
L 2906 0 
L 2906 525 
Q 2725 213 2448 61 
Q 2172 -91 1784 -91 
Q 1150 -91 751 415 
Q 353 922 353 1747 
Q 353 2572 751 3078 
Q 1150 3584 1784 3584 
Q 2172 3584 2448 3432 
Q 2725 3281 2906 2969 
z
M 947 1747 
Q 947 1113 1208 752 
Q 1469 391 1925 391 
Q 2381 391 2643 752 
Q 2906 1113 2906 1747 
Q 2906 2381 2643 2742 
Q 2381 3103 1925 3103 
Q 1469 3103 1208 2742 
Q 947 2381 947 1747 
z
" transform="scale(0.015625)"/>
       <path id="DejaVuSans-62" d="M 3116 1747 
Q 3116 2381 2855 2742 
Q 2594 3103 2138 3103 
Q 1681 3103 1420 2742 
Q 1159 2381 1159 1747 
Q 1159 1113 1420 752 
Q 1681 391 2138 391 
Q 2594 391 2855 752 
Q 3116 1113 3116 1747 
z
M 1159 2969 
Q 1341 3281 1617 3432 
Q 1894 3584 2278 3584 
Q 2916 3584 3314 3078 
Q 3713 2572 3713 1747 
Q 3713 922 3314 415 
Q 2916 -91 2278 -91 
Q 1894 -91 1617 61 
Q 1341 213 1159 525 
L 1159 0 
L 581 0 
L 581 4863 
L 1159 4863 
L 1159 2969 
z
" transform="scale(0.015625)"/>
       <path id="DejaVuSans-79" d="M 2059 -325 
Q 1816 -950 1584 -1140 
Q 1353 -1331 966 -1331 
L 506 -1331 
L 506 -850 
L 844 -850 
Q 1081 -850 1212 -737 
Q 1344 -625 1503 -206 
L 1606 56 
L 191 3500 
L 800 3500 
L 1894 763 
L 2988 3500 
L 3597 3500 
L 2059 -325 
z
" transform="scale(0.015625)"/>
      </defs>
      <use xlink:href="#DejaVuSans-63"/>
      <use xlink:href="#DejaVuSans-6f" transform="translate(54.980469 0)"/>
      <use xlink:href="#DejaVuSans-6d" transform="translate(116.162109 0)"/>
      <use xlink:href="#DejaVuSans-70" transform="translate(213.574219 0)"/>
      <use xlink:href="#DejaVuSans-72" transform="translate(277.050781 0)"/>
      <use xlink:href="#DejaVuSans-65" transform="translate(315.914062 0)"/>
      <use xlink:href="#DejaVuSans-73" transform="translate(377.4375 0)"/>
      <use xlink:href="#DejaVuSans-73" transform="translate(429.537109 0)"/>
      <use xlink:href="#DejaVuSans-65" transform="translate(481.636719 0)"/>
      <use xlink:href="#DejaVuSans-64" transform="translate(543.160156 0)"/>
      <use xlink:href="#DejaVuSans-20" transform="translate(606.636719 0)"/>
      <use xlink:href="#DejaVuSans-73" transform="translate(638.423828 0)"/>
      <use xlink:href="#DejaVuSans-69" transform="translate(690.523438 0)"/>
      <use xlink:href="#DejaVuSans-7a" transform="translate(718.306641 0)"/>
      <use xlink:href="#DejaVuSans-65" transform="translate(770.796875 0)"/>
      <use xlink:href="#DejaVuSans-20" transform="translate(832.320312 0)"/>
      <use xlink:href="#DejaVuSans-28" transform="translate(864.107422 0)"/>
      <use xlink:href="#DejaVuSans-62" transform="translate(903.121094 0)"/>
      <use xlink:href="#DejaVuSans-79" transform="translate(966.597656 0)"/>
      <use xlink:href="#DejaVuSans-74" transform="translate(1025.777344 0)"/>
      <use xlink:href="#DejaVuSans-65" transform="translate(1064.986328 0)"/>
      <use xlink:href="#DejaVuSans-73" transform="translate(1126.509766 0)"/>
      <use xlink:href="#DejaVuSans-29" transform="translate(1178.609375 0)"/>
     </g>
    </g>
   </g>
   <g id="line2d_12">
    <path d="M 221.498182 112.716 
L 221.498182 121.002698 
L 221.897094 121.002698 
L 221.986525 160.068558 
L 222.211994 160.068558 
L 222.211994 163.62 
L 222.727405 163.62 
L 222.727405 168.947163 
L 223.202005 168.947163 
L 223.202005 188.480093 
L 223.446286 188.480093 
L 223.446286 192.031535 
L 223.593164 192.031535 
L 223.593164 194.399163 
L 223.9833 194.399163 
L 223.9833 199.134419 
L 224.441255 199.134419 
L 224.441255 199.726326 
L 224.667422 199.726326 
L 224.667422 205.645395 
L 225.288564 205.645395 
L 225.288564 223.994512 
L 225.634363 223.994512 
L 225.634363 225.770233 
L 226.101322 225.770233 
L 226.101322 230.505488 
L 226.479559 230.505488 
L 226.479559 231.689302 
L 226.692377 231.689302 
L 226.692377 235.832651 
L 227.006373 235.832651 
L 227.006373 239.976 
L 227.736258 239.976 
L 227.736258 244.711256 
L 228.581721 244.711256 
L 228.581721 248.854605 
L 229.963118 248.854605 
L 229.963118 252.997953 
L 231.378818 252.997953 
L 231.378818 254.773674 
L 232.706153 254.773674 
L 232.706153 255.957488 
L 234.448902 255.957488 
L 234.448902 258.917023 
L 236.641468 258.917023 
L 236.641468 263.060372 
L 237.015983 263.060372 
L 237.015983 265.428 
L 237.946428 265.428 
L 237.946428 266.611814 
L 238.870729 266.611814 
L 238.870729 269.571349 
L 239.464106 269.571349 
L 239.464106 273.122791 
L 240.447707 273.122791 
L 240.447707 274.898512 
L 241.703064 274.898512 
L 241.703064 276.674233 
L 242.535843 276.674233 
L 242.535843 277.858047 
L 243.451986 277.858047 
L 243.451986 278.449953 
L 244.121885 278.449953 
L 244.121885 283.777116 
L 245.245378 283.777116 
L 245.245378 286.144744 
L 245.926172 286.144744 
L 245.926172 289.696186 
L 247.113658 289.696186 
L 247.113658 290.288093 
L 248.990822 290.288093 
L 248.990822 291.471907 
L 249.99103 291.471907 
L 249.99103 292.655721 
L 250.763498 292.655721 
L 250.763498 297.982884 
L 251.646127 297.982884 
L 251.646127 299.758605 
L 253.409148 299.758605 
L 253.409148 302.71814 
L 255.471778 302.71814 
L 255.471778 304.49386 
L 258.36959 304.49386 
L 258.36959 305.677674 
L 259.802591 305.677674 
L 259.802591 306.861488 
L 261.86386 306.861488 
L 261.86386 308.045302 
L 263.050191 308.045302 
L 263.050191 308.637209 
L 263.765671 308.637209 
L 263.765671 311.004837 
L 266.209803 311.004837 
L 266.209803 312.780558 
L 267.399875 312.780558 
L 267.399875 318.107721 
L 268.568845 318.107721 
L 268.568845 319.291535 
L 270.590702 319.291535 
L 270.590702 321.067256 
L 271.76485 321.067256 
L 271.76485 322.25107 
L 272.592456 322.25107 
L 272.592456 323.434884 
L 274.19845 323.434884 
L 274.19845 324.618698 
L 276.196534 324.618698 
L 276.196534 325.210605 
L 278.517916 325.210605 
L 278.517916 326.394419 
L 279.919407 326.394419 
L 279.919407 326.986326 
L 282.575703 326.986326 
L 282.575703 328.762047 
L 284.282999 328.762047 
L 284.282999 329.94586 
L 285.982027 329.94586 
L 285.982027 331.129674 
L 288.159287 331.129674 
L 288.159287 332.313488 
L 290.78197 332.313488 
L 290.78197 333.497302 
L 293.587792 333.497302 
L 293.587792 334.089209 
L 298.222095 334.089209 
L 298.222095 334.681116 
L 299.301723 334.681116 
L 299.301723 341.784 
L 301.562578 341.784 
L 301.562578 342.967814 
L 303.813864 342.967814 
L 303.813864 343.559721 
L 307.546666 343.559721 
L 307.546666 347.111163 
L 308.401028 347.111163 
L 308.401028 350.662605 
L 310.186271 350.662605 
L 310.186271 351.254512 
L 311.218829 351.254512 
L 311.218829 352.438326 
L 313.389527 352.438326 
L 313.389527 354.805953 
L 314.985615 354.805953 
L 314.985615 355.39786 
L 315.601676 355.39786 
L 315.601676 356.581674 
L 317.979314 356.581674 
L 317.979314 357.765488 
L 320.504204 357.765488 
L 320.504204 358.949302 
L 323.111109 358.949302 
L 323.111109 359.541209 
L 325.231105 359.541209 
L 325.231105 360.725023 
L 326.871546 360.725023 
L 326.871546 363.092651 
L 328.274701 363.092651 
L 328.274701 364.276465 
L 332.705669 364.276465 
L 332.705669 365.460279 
L 334.225022 365.460279 
L 334.225022 366.644093 
L 337.165657 366.644093 
L 337.165657 368.419814 
L 340.123328 368.419814 
L 340.123328 369.011721 
L 341.440276 369.011721 
L 341.440276 378.482233 
L 342.496189 378.482233 
L 342.496189 396.239442 
L 343.028303 396.239442 
L 343.028303 399.790884 
L 344.544536 399.790884 
L 344.544536 402.750419 
L 345.719964 402.750419 
L 345.719964 404.52614 
L 347.360836 404.52614 
L 347.360836 405.118047 
L 350.160872 405.118047 
L 350.160872 406.893767 
L 351.409476 406.893767 
L 351.409476 408.669488 
L 354.218696 408.669488 
L 354.218696 409.261395 
L 355.822651 409.261395 
L 355.822651 411.629023 
L 359.087482 411.629023 
L 359.087482 413.404744 
L 360.99075 413.404744 
L 360.99075 414.588558 
L 362.540999 414.588558 
L 362.540999 415.772372 
L 363.894059 415.772372 
L 363.894059 416.364279 
L 367.308632 416.364279 
L 367.308632 418.731907 
L 369.165951 418.731907 
L 369.165951 419.915721 
L 370.287082 419.915721 
L 370.287082 420.507628 
L 372.42897 420.507628 
L 372.42897 421.099535 
L 377.028265 421.099535 
L 377.028265 422.283349 
L 379.022828 422.283349 
L 379.022828 423.467163 
L 381.299586 423.467163 
L 381.299586 425.834791 
L 384.185469 425.834791 
L 384.185469 427.018605 
L 388.377697 427.018605 
L 388.377697 428.202419 
L 392.140897 428.202419 
L 392.140897 428.794326 
L 396.923661 428.794326 
L 396.923661 429.97814 
L 399.922861 429.97814 
L 399.922861 431.161953 
L 402.746011 431.161953 
L 402.746011 432.345767 
L 406.781187 432.345767 
L 406.781187 432.937674 
L 411.078302 432.937674 
L 411.078302 433.529581 
L 414.420846 433.529581 
L 414.420846 435.305302 
L 418.976084 435.305302 
L 418.976084 435.897209 
L 423.507541 435.897209 
L 423.507541 437.081023 
L 428.785931 437.081023 
L 428.785931 437.67293 
L 432.404915 437.67293 
L 432.404915 438.264837 
L 436.060598 438.264837 
L 436.060598 438.856744 
L 442.900882 438.856744 
L 442.900882 440.040558 
L 447.694211 440.040558 
L 447.694211 441.224372 
L 452.371577 441.224372 
L 452.371577 441.816279 
L 457.298399 441.816279 
L 457.298399 443.592 
L 458.827191 443.592 
L 458.827191 444.775814 
L 463.679566 444.775814 
L 463.679566 445.959628 
L 465.255391 445.959628 
L 465.255391 446.551535 
L 466.610394 446.551535 
L 466.610394 447.735349 
L 474.142091 447.735349 
L 474.142091 448.919163 
L 476.696218 448.919163 
L 476.696218 451.286791 
L 481.378922 451.286791 
L 481.378922 451.878698 
L 486.336783 451.878698 
L 486.336783 452.470605 
L 492.733419 452.470605 
L 492.733419 453.654419 
L 500.132038 453.654419 
L 500.132038 454.246326 
L 503.478592 454.246326 
L 503.478592 455.43014 
L 505.963814 455.43014 
L 505.963814 458.389674 
L 507.58642 458.389674 
L 507.58642 460.757302 
L 509.590222 460.757302 
L 509.590222 461.941116 
L 510.79667 461.941116 
L 510.79667 463.12493 
L 511.851417 463.12493 
L 511.851417 464.308744 
L 512.629139 464.308744 
L 512.629139 464.900651 
L 513.642516 464.900651 
L 513.642516 465.492558 
L 514.580338 465.492558 
L 514.580338 467.860186 
L 515.604652 467.860186 
L 515.604652 469.044 
L 516.758409 469.044 
L 516.758409 471.411628 
L 521.202168 471.411628 
L 521.202168 473.187349 
L 522.540379 473.187349 
L 522.540379 474.371163 
L 523.73152 474.371163 
L 523.73152 474.96307 
L 526.092814 474.96307 
L 526.092814 477.330698 
L 528.430677 477.330698 
L 528.430677 477.922605 
L 529.564046 477.922605 
L 529.564046 479.106419 
L 531.744169 479.106419 
L 531.744169 479.698326 
L 532.852241 479.698326 
L 532.852241 480.88214 
L 534.13984 480.88214 
L 534.13984 481.474047 
L 537.215549 481.474047 
L 537.215549 482.065953 
L 538.350586 482.065953 
L 538.350586 482.65786 
L 540.869518 482.65786 
L 540.869518 483.249767 
L 544.525391 483.249767 
L 544.525391 487.393116 
L 546.378312 487.393116 
L 546.378312 487.985023 
L 548.109898 487.985023 
L 548.109898 488.57693 
L 550.763076 488.57693 
L 550.763076 497.455535 
L 553.084309 497.455535 
L 553.084309 498.639349 
L 554.724226 498.639349 
L 554.724226 500.41507 
L 559.193004 500.41507 
L 559.193004 501.006977 
L 562.505543 501.006977 
L 562.505543 501.598884 
L 565.66101 501.598884 
L 565.66101 503.374605 
L 568.963001 503.374605 
L 568.963001 505.150326 
L 571.66246 505.150326 
L 571.66246 509.293674 
L 575.219079 509.293674 
L 575.219079 509.885581 
L 577.257097 509.885581 
L 577.257097 510.477488 
L 581.873427 510.477488 
L 581.873427 511.661302 
L 583.775517 511.661302 
L 583.775517 512.253209 
L 585.54007 512.253209 
L 585.54007 513.437023 
L 587.132354 513.437023 
L 587.132354 514.02893 
L 589.130766 514.02893 
L 589.130766 517.580372 
L 592.141961 517.580372 
L 592.141961 518.172279 
L 595.341697 518.172279 
L 595.341697 519.948 
L 602.079357 519.948 
L 602.079357 520.539907 
L 603.365703 520.539907 
L 603.365703 521.131814 
L 606.176869 521.131814 
L 606.176869 521.723721 
L 608.622769 521.723721 
L 608.622769 522.315628 
L 610.530025 522.315628 
L 610.530025 522.907535 
L 614.508931 522.907535 
L 614.508931 523.499442 
L 617.412393 523.499442 
L 617.412393 524.091349 
L 619.273907 524.091349 
L 619.273907 525.275163 
L 622.063861 525.275163 
L 622.063861 525.86707 
L 624.01572 525.86707 
L 624.01572 526.458977 
L 625.708927 526.458977 
L 625.708927 527.050884 
L 628.559212 527.050884 
L 628.559212 528.234698 
L 630.543355 528.234698 
L 630.543355 528.826605 
L 631.74791 528.826605 
L 631.74791 529.418512 
L 637.488391 529.418512 
L 637.488391 530.010419 
L 638.932533 530.010419 
L 638.932533 530.602326 
L 640.721649 530.602326 
L 640.721649 531.194233 
L 643.757277 531.194233 
L 643.757277 532.378047 
L 646.777556 532.378047 
L 646.777556 533.56186 
L 648.022002 533.56186 
L 648.022002 534.153767 
L 651.079277 534.153767 
L 651.079277 534.745674 
L 653.251855 534.745674 
L 653.251855 535.929488 
L 659.09471 535.929488 
L 659.09471 536.521395 
L 662.83114 536.521395 
L 662.83114 537.705209 
L 666.45721 537.705209 
L 666.45721 538.297116 
L 668.420603 538.297116 
L 668.420603 538.889023 
L 673.709387 538.889023 
L 673.709387 539.48093 
L 680.701645 539.48093 
L 680.701645 541.848558 
L 687.336683 541.848558 
L 687.336683 545.4 
L 691.381918 545.4 
L 691.381918 546.583814 
L 693.669598 546.583814 
L 693.669598 548.951442 
L 695.644781 548.951442 
L 695.644781 549.543349 
L 700.647456 549.543349 
L 700.647456 550.727163 
L 710.923096 550.727163 
L 710.923096 551.31907 
L 717.937608 551.31907 
L 717.937608 552.502884 
L 721.528595 552.502884 
L 721.528595 553.094791 
L 736.060351 553.094791 
L 736.060351 554.278605 
L 747.995554 554.278605 
L 747.995554 554.870512 
L 754.234688 554.870512 
L 754.234688 555.462419 
L 764.278279 555.462419 
L 764.278279 556.054326 
L 770.904996 556.054326 
L 770.904996 558.421953 
L 773.778802 558.421953 
L 773.778802 559.01386 
L 776.723974 559.01386 
L 776.723974 559.605767 
L 784.983498 559.605767 
L 784.983498 560.197674 
L 789.203933 560.197674 
L 789.203933 560.789581 
L 796.964927 560.789581 
L 796.964927 561.381488 
L 803.323466 561.381488 
L 803.323466 562.565302 
L 806.371903 562.565302 
L 806.371903 564.341023 
L 811.621423 564.341023 
L 811.621423 564.93293 
L 815.975648 564.93293 
L 815.975648 565.524837 
L 819.544311 565.524837 
L 819.544311 566.116744 
L 823.355109 566.116744 
L 823.355109 567.300558 
L 826.428516 567.300558 
L 826.428516 569.076279 
L 830.405902 569.076279 
L 830.405902 570.260093 
L 838.53143 570.260093 
L 838.53143 570.852 
L 845.732127 570.852 
L 845.732127 571.443907 
L 851.153281 571.443907 
L 851.153281 572.627721 
L 858.901072 572.627721 
L 858.901072 573.811535 
L 862.607705 573.811535 
L 862.607705 574.403442 
L 866.12341 574.403442 
L 866.12341 574.995349 
L 871.496896 574.995349 
L 871.496896 576.179163 
L 876.35284 576.179163 
L 876.35284 576.77107 
L 879.325316 576.77107 
L 879.325316 577.954884 
L 882.275883 577.954884 
L 882.275883 578.546791 
L 889.628918 578.546791 
L 889.628918 582.098233 
L 892.999447 582.098233 
L 892.999447 583.873953 
L 894.760558 583.873953 
L 894.760558 585.057767 
L 895.515866 585.057767 
L 895.515866 586.241581 
L 897.592802 586.241581 
L 897.592802 586.833488 
L 898.452061 586.833488 
L 898.452061 588.017302 
L 904.719757 588.017302 
L 904.719757 588.609209 
L 908.165485 588.609209 
L 908.165485 589.793023 
L 912.504306 589.793023 
L 912.504306 590.38493 
L 916.317681 590.38493 
L 916.317681 591.568744 
L 922.048798 591.568744 
L 922.048798 593.936372 
L 927.496877 593.936372 
L 927.496877 594.528279 
L 931.226054 594.528279 
L 931.226054 595.120186 
L 935.824078 595.120186 
L 935.824078 595.712093 
L 943.615866 595.712093 
L 943.615866 596.304 
L 948.462404 596.304 
L 948.462404 598.079721 
L 951.260933 598.079721 
L 951.260933 599.263535 
L 952.231464 599.263535 
L 952.231464 599.855442 
L 957.145581 599.855442 
L 957.145581 600.447349 
L 962.564488 600.447349 
L 962.564488 601.631163 
L 966.713943 601.631163 
L 966.713943 602.22307 
L 972.019651 602.22307 
L 972.019651 602.814977 
L 981.214882 602.814977 
L 981.214882 603.998791 
L 990.316433 603.998791 
L 990.316433 604.590698 
L 1010.100622 604.590698 
L 1010.100622 605.182605 
L 1018.0101 605.182605 
L 1018.0101 605.774512 
L 1024.344076 605.774512 
L 1024.344076 606.366419 
L 1034.070753 606.366419 
L 1034.070753 606.958326 
L 1039.535467 606.958326 
L 1039.535467 607.550233 
L 1055.534207 607.550233 
L 1055.534207 608.14214 
L 1061.987305 608.14214 
L 1061.987305 608.734047 
L 1074.416865 608.734047 
L 1074.416865 609.325953 
L 1079.667188 609.325953 
L 1079.667188 609.91786 
L 1084.02705 609.91786 
L 1084.02705 611.101674 
L 1098.334411 611.101674 
L 1098.334411 611.693581 
L 1101.148815 611.693581 
L 1101.148815 612.285488 
L 1104.799567 612.285488 
L 1104.799567 612.877395 
L 1108.100871 612.877395 
L 1108.100871 613.469302 
L 1121.285504 613.469302 
L 1121.285504 614.653116 
L 1127.867212 614.653116 
L 1127.867212 616.428837 
L 1141.667166 616.428837 
L 1141.667166 617.020744 
L 1144.567363 617.020744 
L 1144.567363 618.204558 
L 1157.470982 618.204558 
L 1157.470982 618.796465 
L 1160.223742 618.796465 
L 1160.223742 619.388372 
L 1166.137801 619.388372 
L 1166.137801 619.980279 
L 1175.286652 619.980279 
L 1175.286652 620.572186 
L 1191.052625 620.572186 
L 1191.052625 621.164093 
L 1194.250867 621.164093 
L 1194.250867 621.756 
L 1195.461818 621.756 
L 1195.461818 621.756 
" clip-path="url(#pee735791a6)" style="fill: none; stroke: #1f77b4; stroke-width: 1.5; stroke-linecap: square"/>
   </g>
   <g id="patch_3">
    <path d="M 172.8 647.208 
L 172.8 87.264 
" style="fill: none; stroke: #000000; stroke-width: 0.8; stroke-linejoin: miter; stroke-linecap: square"/>
   </g>
   <g id="patch_4">
    <path d="M 1244.16 647.208 
L 1244.16 87.264 
" style="fill: none; stroke: #000000; stroke-width: 0.8; stroke-linejoin: miter; stroke-linecap: square"/>
   </g>
   <g id="patch_5">
    <path d="M 172.8 647.208 
L 1244.16 647.208 
" style="fill: none; stroke: #000000; stroke-width: 0.8; stroke-linejoin: miter; stroke-linecap: square"/>
   </g>
   <g id="patch_6">
    <path d="M 172.8 87.264 
L 1244.16 87.264 
" style="fill: none; stroke: #000000; stroke-width: 0.8; stroke-linejoin: miter; stroke-linecap: square"/>
   </g>
  </g>
 </g>
 <defs>
  <clipPath id="pee735791a6">
   <rect x="172.8" y="87.264" width="1071.36" height="559.944"/>
  </clipPath>
 </defs>
</svg>
